<svg version="1.1" id="Layer_1" xmlns="http://www.w3.org/2000/svg" xmlns:xlink="http://www.w3.org/1999/xlink" x="0px" y="0px"
	 width="100%" viewBox="0 0 800 189" enable-background="new 0 0 800 189" xml:space="preserve">
<path fill="#4C6971" opacity="1.000000" stroke="none" 
	d="
M1.000000,69.000000 
	C1.000000,46.353336 1.000000,23.706676 1.000000,1.000000 
	C143.354218,1.000000 285.708466,1.000000 428.531494,1.468657 
	C429.000275,17.390480 429.000275,32.843643 429.000275,48.296810 
	C429.333527,48.296967 429.666748,48.297127 430.000000,48.297283 
	C430.000000,32.531521 430.000000,16.765760 430.000000,1.000000 
	C430.000000,1.000000 430.500000,1.000000 430.749634,1.468657 
	C431.001556,16.389467 431.115173,30.842983 430.938416,45.292946 
	C430.885132,49.651257 432.520294,51.127594 436.789825,51.057575 
	C448.248749,50.869652 459.712860,51.016026 471.174835,50.990349 
	C477.787292,50.975540 477.975281,50.801579 477.988495,44.356388 
	C478.018188,29.904312 477.999146,15.452136 478.000000,1.000000 
	C478.000000,1.000000 478.500000,1.000000 478.751221,1.468656 
	C479.002441,17.093697 479.002441,32.250080 479.002441,47.406467 
	C479.334961,47.404243 479.667480,47.402023 480.000000,47.399803 
	C480.000000,31.933203 480.000000,16.466600 480.000000,1.000000 
	C586.882568,1.000000 693.765198,1.000000 801.000000,1.000000 
	C801.000000,26.686487 801.000000,52.374584 800.842285,78.208252 
	C796.046570,62.209438 787.868530,58.967968 776.630371,58.056313 
	C764.289490,57.055206 753.830750,60.718903 746.414429,72.597649 
	C741.304382,62.642365 733.955994,58.051575 723.417053,57.858414 
	C712.924744,57.666111 705.044373,62.362869 697.864136,69.400154 
	C695.689758,60.979424 695.689758,60.978649 686.578674,61.000278 
	C685.414856,61.003040 684.249207,61.065872 683.087585,61.020027 
	C679.502563,60.878544 677.970337,62.611881 678.003479,66.153313 
	C678.059570,72.137863 677.958740,78.123878 677.501587,84.074486 
	C673.071960,82.998581 669.064758,81.957474 664.973022,80.576942 
	C662.285278,73.432007 657.682007,68.232651 651.817322,63.760971 
	C647.408875,58.993271 642.008606,56.431835 635.566650,55.070763 
	C633.444153,54.726074 631.694763,54.445053 629.607788,53.987614 
	C627.523682,53.598476 625.777222,53.385757 623.647949,53.129921 
	C622.496643,53.118362 621.727966,53.149918 620.562805,53.139572 
	C619.105164,53.118183 618.044067,53.138699 616.657715,53.124054 
	C615.545471,53.359940 614.758606,53.630981 613.600464,53.940857 
	C611.829773,54.374599 610.430298,54.769508 608.673584,55.128944 
	C606.583862,55.797848 604.851318,56.502216 602.823486,57.257423 
	C601.975464,57.862129 601.422791,58.416008 600.524963,59.011875 
	C598.185913,60.038044 596.192078,61.022217 594.054626,62.288456 
	C593.244507,63.382576 592.577942,64.194633 591.709351,65.048431 
	C591.507263,65.090164 591.119385,65.231071 590.785889,65.201141 
	C589.603027,65.803810 588.753662,66.436401 587.784363,67.088226 
	C587.664490,67.107460 587.489441,67.275749 587.323364,67.420898 
	C587.157227,67.566040 587.020813,67.985573 586.723145,68.165314 
	C584.584167,71.210365 582.742859,74.075676 580.636047,77.124763 
	C579.884033,78.492737 579.397522,79.676933 578.642334,81.063644 
	C577.913818,82.500267 577.453918,83.734360 576.762939,85.152237 
	C576.296204,85.871284 576.060486,86.406548 575.575867,87.206993 
	C574.927002,89.656456 574.527100,91.840744 573.938232,94.377701 
	C573.556885,97.416344 573.364563,100.102303 573.138550,103.198776 
	C573.446533,105.419159 573.788330,107.229027 574.109436,109.439682 
	C576.439819,116.503426 578.577209,123.254875 581.277283,129.773254 
	C582.046875,131.630981 584.450928,132.811676 586.052734,134.652252 
	C585.218628,137.337540 584.437317,139.673416 583.472900,142.325531 
	C582.544006,147.346512 581.798279,152.051224 580.830078,157.126205 
	C578.804199,168.522415 580.792786,179.269257 583.000000,190.000000 
	C389.000000,190.000000 194.999985,190.000000 1.000000,190.000000 
	C1.000000,161.566940 1.000000,133.252121 1.166751,104.817757 
	C1.587969,105.998650 1.938362,107.288643 2.081524,108.601234 
	C3.103198,117.968544 7.488489,126.119164 15.073685,130.841980 
	C22.231125,135.298447 30.816484,138.351456 39.158939,139.793869 
	C50.050003,141.676941 61.315952,141.459900 72.428490,141.976990 
	C86.906670,142.650665 100.600731,138.853516 113.400391,132.739426 
	C118.064072,130.511703 122.533653,125.512978 124.637909,120.704597 
	C133.353577,100.788567 130.880600,79.982712 127.305260,59.397041 
	C126.573830,55.185703 124.493164,50.322109 121.405998,47.618992 
	C117.023148,43.781395 111.308670,41.255814 105.848053,38.900154 
	C93.406677,33.533070 80.042549,32.062805 66.740891,32.173733 
	C47.865345,32.331154 29.009266,33.798923 12.983646,45.667156 
	C10.782459,47.297310 8.502282,49.415222 7.410036,51.828438 
	C4.896552,57.381744 3.092150,63.255993 1.000000,69.000000 
M197.360336,87.732063 
	C197.575012,90.039185 197.963852,92.345421 197.975464,94.653564 
	C198.039932,107.481628 198.103226,120.311127 197.966400,133.138000 
	C197.920578,137.434006 199.637985,139.117691 203.903702,139.036224 
	C212.397247,138.874008 220.896469,139.042084 229.392838,138.988541 
	C244.680466,138.892197 242.894897,140.672150 242.982819,125.350227 
	C243.047821,114.021622 243.050583,102.692146 242.986099,91.363586 
	C242.961273,87.002892 244.227615,83.666466 249.108994,83.273857 
	C253.965073,82.883278 255.941879,85.972572 256.501770,90.253342 
	C256.802917,92.556046 256.967712,94.892548 256.977478,97.214722 
	C257.028015,109.209892 257.076294,121.205925 256.974609,133.200378 
	C256.941498,137.102066 258.268982,139.068314 262.457489,139.020813 
	C273.451752,138.896164 284.449280,138.898697 295.443573,139.023056 
	C299.548950,139.069473 301.050964,137.283875 301.027008,133.300034 
	C300.926666,116.640457 301.157318,99.977287 300.910889,83.320702 
	C300.723907,70.679863 293.496948,60.091370 282.660400,56.584515 
	C273.758179,53.703636 264.515564,53.521946 255.652466,56.564449 
	C251.103851,58.125877 246.878113,60.938950 242.920532,63.766041 
	C241.208725,64.988884 240.543411,67.676727 238.951645,70.498863 
	C233.532410,57.961456 223.664383,54.270195 212.140259,54.533905 
	C200.864868,54.791924 190.874496,58.475288 183.996918,70.054008 
	C183.996918,67.066460 184.018600,65.439766 183.993073,63.813816 
	C183.894394,57.530319 183.437805,57.039173 177.063629,57.015408 
	C166.734436,56.976898 156.402603,57.139740 146.076752,56.950821 
	C141.508514,56.867241 139.927689,58.718090 139.951416,63.181961 
	C140.075348,86.505623 140.066147,109.830551 139.961609,133.154388 
	C139.942307,137.462189 141.658112,139.097153 145.910660,139.037109 
	C156.571060,138.886566 167.237259,138.861526 177.896515,139.048660 
	C182.438553,139.128403 184.109940,137.339447 184.049973,132.845688 
	C183.883286,120.352798 183.961716,107.855904 184.038345,95.361168 
	C184.052505,93.053589 183.915466,90.432846 184.925430,88.527679 
	C186.029846,86.444336 188.273651,83.817902 190.224167,83.638512 
	C192.364197,83.441689 194.736221,85.767181 196.681290,87.753014 
	C196.454407,92.547478 196.074051,97.340591 196.031601,102.136688 
	C195.933929,113.172577 196.000610,124.209915 196.000610,135.246658 
	C196.333023,135.244766 196.665436,135.242859 196.997849,135.240967 
	C196.997849,119.156570 196.997849,103.072174 197.360336,87.732063 
M357.459351,66.540497 
	C357.034363,66.798904 356.609344,67.057320 356.184357,67.315720 
	C356.119293,65.821083 355.911194,64.316299 356.016235,62.833717 
	C356.322968,58.505272 354.323578,56.905235 350.086761,56.963470 
	C339.263214,57.112251 328.435455,57.096264 317.611237,56.976120 
	C313.553925,56.931087 311.960999,58.618080 311.975220,62.645367 
	C312.058594,86.294762 312.049927,109.944664 311.989624,133.594193 
	C311.979919,137.378616 313.521454,139.038498 317.349609,139.008514 
	C328.674072,138.919769 340.001099,138.877472 351.324097,139.035309 
	C355.783020,139.097458 357.082275,137.019943 357.035675,132.920425 
	C356.906860,121.596710 356.917572,110.269531 357.052338,98.945854 
	C357.091644,95.642433 357.603882,92.325508 358.129272,89.051666 
	C358.849792,84.561768 362.058990,83.099503 366.130798,83.265190 
	C370.729736,83.452332 372.898651,85.945412 372.942200,91.336945 
	C373.052460,104.992950 372.967621,118.650421 373.019928,132.307083 
	C373.043213,138.385040 373.594910,138.949463 379.564392,138.978500 
	C390.389740,139.031174 401.215576,139.022995 412.041046,138.984558 
	C418.433289,138.961884 418.964111,138.457413 418.981567,132.203598 
	C419.021118,118.047165 419.225647,103.884735 418.874207,89.736893 
	C418.735168,84.138916 417.758118,78.453102 416.342163,73.021156 
	C414.259155,65.030113 409.678375,58.884449 401.055878,56.883625 
	C396.853729,55.908535 392.650604,54.754982 388.381653,54.288681 
	C379.463287,53.314507 371.171997,56.089127 363.537506,60.236103 
	C360.995880,61.616680 359.752411,65.823830 356.882599,59.246464 
	C357.115234,62.344425 357.250732,64.149002 357.459351,66.540497 
M451.500305,138.998856 
	C458.332153,138.995270 465.167053,138.867538 471.994751,139.034088 
	C476.168152,139.135880 478.058502,137.636292 478.038452,133.246429 
	C477.931152,109.751961 477.949341,86.256630 478.025360,62.761917 
	C478.038086,58.827068 476.642731,56.938301 472.493408,56.978947 
	C460.497162,57.096443 448.498718,57.073437 436.501923,56.988724 
	C432.785126,56.962479 430.984192,58.360161 430.994476,62.259476 
	C431.057373,86.087418 431.057465,109.915703 430.994293,133.743652 
	C430.983978,137.645447 432.787598,139.096725 436.504456,139.007843 
	C441.167267,138.896378 445.835052,138.992386 451.500305,138.998856 
M545.304626,137.026993 
	C556.378784,133.499832 563.919434,126.501907 567.152466,115.107063 
	C568.989624,108.632294 568.633972,108.043602 561.728088,108.004417 
	C559.394897,107.991180 557.047302,108.168312 554.731384,107.968262 
	C550.496399,107.602448 548.285828,109.250244 546.513245,113.342430 
	C542.268127,123.142853 533.114624,127.577904 522.903015,123.725204 
	C517.023621,121.506973 513.025024,117.054146 510.870880,111.348885 
	C507.070343,101.283096 507.253235,91.077728 511.586578,81.167671 
	C514.891357,73.609756 520.958557,69.706650 529.139404,69.083153 
	C536.257080,68.540688 542.432495,71.597061 545.215393,77.515495 
	C547.934814,83.298737 551.393616,84.531029 556.834045,84.038719 
	C559.480225,83.799271 562.163391,83.965286 564.829773,83.952934 
	C567.845154,83.938965 568.679688,82.368629 567.721375,79.717232 
	C565.711670,74.157227 563.354553,69.164650 558.807922,64.706955 
	C544.938965,51.109428 506.813721,50.613838 494.035522,72.779442 
	C485.599792,87.412407 485.028381,102.142159 491.813080,117.203964 
	C493.865784,121.760872 496.500946,126.895470 500.375122,129.639282 
	C513.672546,139.056900 528.629028,141.593857 545.304626,137.026993 
M310.998779,99.500000 
	C310.998779,86.563934 310.998779,73.627869 310.998779,60.691799 
	C310.749390,60.693851 310.499969,60.695900 310.250580,60.697948 
	C310.250580,85.900192 310.250580,111.102432 310.250580,136.304672 
	C310.499969,136.306931 310.749390,136.309189 310.998779,136.311447 
	C310.998779,124.374298 310.998779,112.437149 310.998779,99.500000 
M429.005981,63.418240 
	C429.005981,87.663322 429.005981,111.908401 429.005981,136.153473 
	C429.232574,136.150848 429.459167,136.148209 429.685760,136.145584 
	C429.685760,111.033485 429.685760,85.921402 429.685760,60.809307 
	C429.528168,60.804695 429.370575,60.800083 429.212982,60.795471 
	C429.146545,61.436069 429.080109,62.076668 429.005981,63.418240 
M479.011780,62.698120 
	C479.011780,86.902206 479.011780,111.106285 479.011780,135.310364 
	C479.248962,135.308609 479.486115,135.306854 479.723297,135.305099 
	C479.723297,110.429108 479.723297,85.553116 479.723297,60.677124 
	C479.598816,60.670078 479.474335,60.663033 479.349854,60.655983 
	C479.242462,61.124489 479.135071,61.592991 479.011780,62.698120 
M138.070099,134.537659 
	C138.324463,134.678238 138.578812,134.818817 138.833176,134.959412 
	C138.878662,134.630417 138.963730,134.301437 138.963959,133.972412 
	C138.979980,111.975220 138.989273,89.978035 138.998795,67.980843 
	C138.999847,65.527107 138.998932,63.073380 138.998932,60.619648 
	C138.675781,60.621315 138.352615,60.622978 138.029465,60.624645 
	C138.029465,85.064331 138.029465,109.504013 138.070099,134.537659 
M302.001221,112.499992 
	C302.001221,120.050179 302.001221,127.600372 302.001221,135.150558 
	C302.234863,135.141266 302.468475,135.131973 302.702118,135.122681 
	C302.702118,118.648636 302.702118,102.174591 302.702118,85.700546 
	C302.468475,85.700500 302.234863,85.700455 302.001221,85.700417 
	C302.001221,94.300278 302.001221,102.900139 302.001221,112.499992 
M420.998779,104.503647 
	C420.998779,99.567108 420.998779,94.630569 420.998779,89.694023 
	C420.750946,89.698906 420.503113,89.703789 420.255280,89.708664 
	C420.255280,104.903091 420.255280,120.097511 420.255280,135.291946 
	C420.503113,135.294357 420.750946,135.296768 420.998779,135.299194 
	C420.998779,125.366821 420.998779,115.434456 420.998779,104.503647 
M185.997177,97.149734 
	C185.891220,96.029274 185.785263,94.908821 185.679321,93.788361 
	C185.553375,93.802261 185.427444,93.816154 185.301514,93.830055 
	C185.301514,107.651016 185.301514,121.471985 185.301514,135.292938 
	C185.533783,135.292755 185.766037,135.292557 185.998306,135.292374 
	C185.998306,122.856873 185.998306,110.421371 185.997177,97.149734 
M439.852539,140.999069 
	C451.642090,140.999069 463.431671,140.999069 475.221222,140.999069 
	C475.217255,140.748672 475.213287,140.498260 475.209320,140.247864 
	C461.701385,140.247864 448.193451,140.247864 434.685516,140.247864 
	C434.683594,140.498093 434.681671,140.748337 434.679779,140.998566 
	C436.117584,140.998566 437.555420,140.998566 439.852539,140.999069 
M474.002014,52.227909 
	C460.986603,52.227909 447.971191,52.227909 434.955780,52.227909 
	C434.960083,52.343765 434.964386,52.459618 434.968689,52.575474 
	C448.051910,52.575474 461.135101,52.575474 474.002014,52.227909 
M458.498108,55.998966 
	C463.716949,55.998966 468.935791,55.998966 474.154633,55.998966 
	C474.141479,55.766319 474.128357,55.533672 474.115234,55.301025 
	C460.979156,55.301025 447.843079,55.301025 434.707001,55.301025 
	C434.707520,55.533672 434.708038,55.766315 434.708557,55.998962 
	C442.305328,55.998962 449.902130,55.998962 458.498108,55.998966 
M391.503601,140.000610 
	C386.558746,140.000610 381.613922,140.000610 376.669067,140.000610 
	C376.673767,140.249924 376.678467,140.499222 376.683167,140.748535 
	C389.561096,140.748535 402.439026,140.748535 415.316956,140.748535 
	C415.319153,140.499222 415.321381,140.249924 415.323578,140.000610 
	C407.716400,140.000610 400.109253,140.000610 391.503601,140.000610 
M334.500122,140.000610 
	C328.224548,140.000610 321.948975,140.000610 315.673401,140.000610 
	C315.677460,140.249542 315.681488,140.498489 315.685547,140.747421 
	C328.566254,140.747421 341.446930,140.747421 354.327637,140.747421 
	C354.331451,140.498489 354.335266,140.249542 354.339081,140.000610 
	C348.059326,140.000610 341.779572,140.000610 334.500122,140.000610 
M282.498077,140.999390 
	C287.778076,140.999390 293.058044,140.999390 298.338043,140.999390 
	C298.333588,140.749908 298.329163,140.500427 298.324738,140.250946 
	C285.441528,140.250946 272.558319,140.250946 259.675110,140.250946 
	C259.671967,140.500427 259.668854,140.749908 259.665710,140.999390 
	C266.943420,140.999390 274.221161,140.999390 282.498077,140.999390 
M157.503647,140.000610 
	C152.556076,140.000610 147.608521,140.000610 142.660950,140.000610 
	C142.665634,140.250092 142.670303,140.499588 142.674988,140.749069 
	C155.558304,140.749069 168.441605,140.749069 181.324921,140.749069 
	C181.327148,140.499588 181.329376,140.250092 181.331604,140.000610 
	C173.721771,140.000610 166.111923,140.000610 157.503647,140.000610 
M229.453583,140.999390 
	C232.740585,140.999390 236.027588,140.999390 239.314606,140.999390 
	C239.309357,140.753525 239.304108,140.507645 239.298859,140.261780 
	C226.765045,140.261780 214.231232,140.261780 201.697418,140.261780 
	C201.694138,140.507645 201.690857,140.753525 201.687576,140.999390 
	C210.614777,140.999390 219.541977,140.999390 229.453583,140.999390 
M149.735626,55.001099 
	C147.729462,55.001099 145.723312,55.001099 143.717148,55.001099 
	C143.731201,55.252010 143.745255,55.502918 143.759323,55.753830 
	C155.965164,55.753830 168.171005,55.753830 180.376862,55.753830 
	C180.378860,55.502903 180.380875,55.251980 180.382889,55.001053 
	C170.477905,55.001053 160.572937,55.001053 149.735626,55.001099 
M316.464172,55.070061 
	C316.323608,55.324436 316.183044,55.578808 316.042480,55.833176 
	C316.205261,55.866493 316.368042,55.928921 316.530823,55.928982 
	C328.479797,55.933529 340.428772,55.933132 352.377716,55.933132 
	C352.378082,55.631897 352.378448,55.330658 352.378815,55.029423 
	C340.605194,55.029423 328.831573,55.029423 316.464172,55.070061 
M255.998947,108.545670 
	C255.998947,105.301865 255.998947,102.058067 255.998947,98.814262 
	C255.764618,98.832710 255.530289,98.851158 255.295959,98.869598 
	C255.295959,110.347908 255.295959,121.826210 255.295959,133.304520 
	C255.530289,133.304001 255.764603,133.303482 255.998932,133.302979 
	C255.998932,125.378761 255.998932,117.454544 255.998947,108.545670 
z"/>
<path fill="#4B6871" opacity="1.000000" stroke="none" 
	d="
M757.000000,190.000000 
	C753.307068,190.000000 749.614197,190.000000 745.703247,189.762634 
	C751.841980,186.154755 753.868896,182.415955 752.874329,175.895432 
	C751.942017,169.783051 749.542480,167.538406 742.894104,166.559799 
	C734.794739,165.367584 730.462463,169.102066 729.942871,177.082672 
	C729.523315,183.527145 732.685425,187.336212 738.000000,190.000000 
	C734.307068,190.000000 730.614197,190.000000 726.458984,189.531372 
	C725.976685,182.935974 726.067993,176.804993 725.836060,170.686234 
	C725.793213,169.554626 724.445068,168.472473 723.699341,167.367523 
	C722.850037,168.174896 721.258789,168.990906 721.268066,169.788254 
	C721.346497,176.527435 721.717163,183.263199 722.000000,190.000000 
	C720.933289,190.000000 719.866638,190.000000 718.512573,189.687012 
	C717.962708,188.164841 718.094238,186.597565 717.373596,185.804993 
	C712.934814,180.922577 712.624878,175.439758 716.582458,170.601654 
	C717.120300,169.944153 717.313904,168.411224 716.919617,167.694962 
	C715.666748,165.418701 714.060547,163.336945 712.523315,161.080856 
	C710.277649,161.819244 706.097961,167.980911 706.569702,169.958038 
	C707.488708,173.808884 708.690491,177.686066 708.865906,181.593170 
	C709.029480,185.235519 709.945923,188.013397 713.000000,190.000000 
	C709.969421,190.000000 706.938782,190.000000 703.453552,189.531372 
	C702.987244,183.073029 703.109863,177.077621 702.856628,171.098129 
	C702.802490,169.820267 701.384399,168.600159 700.594604,167.353439 
	C699.744080,168.543076 698.328064,169.657196 698.157166,170.937561 
	C697.763733,173.884033 698.006592,176.912094 697.934143,179.905655 
	C697.845947,183.554031 695.664307,185.581268 692.293945,185.567490 
	C689.025513,185.554123 687.962036,183.072266 688.005798,180.002670 
	C688.053162,176.677460 688.106262,173.332932 687.781128,170.033844 
	C687.686218,169.071259 686.416748,168.057297 685.445374,167.453552 
	C685.166077,167.279953 683.709839,168.300659 683.367432,169.039764 
	C680.933594,174.293427 683.677246,186.387650 688.000000,190.000000 
	C684.638733,190.000000 681.277405,190.000000 677.617859,189.614197 
	C677.540283,180.788605 677.893250,172.348267 677.860107,163.909439 
	C677.854187,162.389084 676.259399,160.874954 675.398193,159.357941 
	C674.604004,160.936249 673.165771,162.497223 673.122925,164.095688 
	C672.891113,172.725327 673.005188,181.364273 673.000000,190.000000 
	C669.307068,190.000000 665.614197,190.000000 661.703857,189.763092 
	C670.806335,185.669678 670.962585,175.946091 666.658508,169.998810 
	C664.775574,167.396988 658.672180,167.226715 654.452942,167.108810 
	C649.983032,166.983871 646.885193,169.610733 646.115479,174.527222 
	C644.943970,182.010605 646.793091,185.864548 654.000000,190.000000 
	C647.978821,190.000000 641.957703,190.000000 635.710510,189.762207 
	C639.602173,187.567505 643.111328,184.892899 642.761353,179.860291 
	C642.413818,174.861618 638.231934,173.276031 634.199341,171.973099 
	C631.364807,171.057251 628.356873,170.631897 625.597900,169.550064 
	C624.440552,169.096283 622.790649,167.217545 623.014648,166.506149 
	C623.422241,165.211792 624.927429,163.619202 626.213562,163.366455 
	C630.027710,162.616882 633.780945,162.631973 636.452454,166.527527 
	C637.077637,167.439133 639.144653,167.361908 640.548340,167.739655 
	C640.553772,166.292908 641.083557,164.556396 640.472351,163.450439 
	C638.039185,159.047592 630.667175,157.071198 624.864624,158.926834 
	C620.788452,160.230408 617.251892,162.480804 617.334106,167.081055 
	C617.415527,171.642288 620.883179,173.927521 625.085083,174.995697 
	C628.142334,175.772934 631.324158,176.248505 634.205933,177.446640 
	C635.589539,178.021866 637.347290,180.053131 637.225769,181.251648 
	C637.095520,182.535767 635.068970,184.440582 633.670959,184.633667 
	C629.119934,185.262207 624.355103,186.013321 621.174011,180.960205 
	C620.647095,180.123245 617.353088,179.835007 616.613525,180.572495 
	C615.053589,182.127991 617.627686,187.392059 619.939026,188.171356 
	C621.638367,188.744339 623.313843,189.387894 625.000000,190.000000 
	C611.979126,190.000000 598.958191,190.000000 585.393921,189.604202 
	C584.574768,187.915283 584.076538,186.625153 584.059143,185.328583 
	C583.935059,176.098373 583.909180,166.866821 583.875732,157.553619 
	C583.899353,157.471512 583.942261,157.306137 584.135132,157.014008 
	C584.508179,155.829880 584.688293,154.937866 585.026184,153.702484 
	C586.080200,150.249252 586.976501,147.139420 588.042358,143.709167 
	C589.117249,140.950668 590.022644,138.512573 591.142822,135.822968 
	C592.208618,134.324860 593.059570,133.078278 594.112366,132.049179 
	C594.859009,132.839142 595.403809,133.411621 595.842041,134.310028 
	C593.668213,137.741333 594.167053,140.537338 597.530273,141.988037 
	C604.283875,144.901154 611.211914,147.410141 618.398987,150.223969 
	C621.165833,150.214386 623.601562,150.066727 626.364624,150.068787 
	C629.157471,150.097687 631.622986,149.976883 634.423828,149.833374 
	C636.212280,149.282425 637.665405,148.754181 639.419067,148.035751 
	C641.817200,146.901001 643.914734,145.956451 646.323242,144.961426 
	C647.432129,144.296082 648.230103,143.681213 649.364624,142.962433 
	C657.083740,139.807892 661.226990,133.696579 664.869995,126.687592 
	C665.357056,125.621605 665.690491,124.835480 666.277344,123.802963 
	C667.291992,121.047035 668.053223,118.537514 668.954834,115.685928 
	C669.327332,113.908966 669.559387,112.474060 669.848999,110.746902 
	C669.891479,109.306252 669.876465,108.157845 670.051758,106.715881 
	C670.178223,104.651024 670.114258,102.879723 670.028076,100.679352 
	C669.989990,98.825554 669.973999,97.400841 669.912109,95.599274 
	C668.205566,89.643944 666.863586,89.079895 659.541199,91.070717 
	C655.084900,92.046799 651.034119,93.005341 646.584595,94.028687 
	C643.749146,94.349159 641.312439,94.604828 638.901123,94.553818 
	C638.999939,93.840790 639.073364,93.434433 639.513733,93.022697 
	C641.915466,92.298729 643.950195,91.580132 646.383423,90.886505 
	C649.818481,90.222145 652.855164,89.532822 656.324707,88.887329 
	C657.916138,88.911980 659.074707,88.892807 660.632751,88.904739 
	C663.132935,88.587173 665.233521,88.238510 667.614197,87.878487 
	C668.441406,87.858620 668.988647,87.850121 669.903198,88.061546 
	C672.840393,88.573181 675.410278,88.864883 677.986450,89.613106 
	C677.995972,102.062981 677.955261,114.056549 678.013794,126.049637 
	C678.083740,140.377533 676.412415,138.951279 691.300598,138.974838 
	C697.385010,138.984467 697.943115,138.408020 697.981567,132.443970 
	C698.064270,119.618805 698.077698,106.793190 698.461609,94.058990 
	C703.509338,96.469406 708.215027,98.788612 713.022278,101.210449 
	C713.349915,101.288986 713.575928,101.264893 713.801941,101.240814 
	C713.659668,101.017700 713.517395,100.794571 713.219727,100.272888 
	C708.038879,96.924576 703.013489,93.874817 698.034912,90.454750 
	C698.977905,85.237778 701.447693,81.583466 704.812439,77.800102 
	C709.405640,72.635475 714.754761,72.357155 720.129272,73.600189 
	C725.143799,74.759956 728.758667,78.799896 728.972656,84.361244 
	C729.496826,97.980598 729.748657,111.611855 729.984558,125.240501 
	C730.249329,140.542160 727.985718,138.816925 743.977905,139.043869 
	C748.594177,139.109375 750.104553,137.165405 750.045471,132.758026 
	C749.884888,120.772865 749.944031,108.783646 750.043640,96.797096 
	C750.062622,94.515335 750.666260,92.238426 750.996216,90.431915 
	C750.992249,105.977135 750.992249,121.049721 750.992249,136.122299 
	C751.954285,122.009254 751.979431,107.904938 751.911743,93.801064 
	C751.905640,92.522278 751.302429,91.246361 751.001282,89.576096 
	C752.004700,86.212074 752.592224,83.031807 754.045715,80.314827 
	C756.830444,75.109550 765.068970,71.999100 771.468811,73.254448 
	C777.372742,74.412537 780.174561,77.875839 780.970764,85.556503 
	C781.499878,90.660797 781.884460,95.799286 781.956421,100.927773 
	C782.108032,111.721626 782.088318,122.519753 781.976501,133.314453 
	C781.935364,137.287994 783.455933,139.149704 787.547913,139.014282 
	C792.027222,138.866043 796.515564,138.992981 801.000000,139.000000 
	C801.000000,152.020889 801.000000,165.041794 800.672852,178.388489 
	C795.756226,176.913284 791.166870,175.112274 786.577454,173.311264 
	C789.690369,170.660461 792.226624,170.620132 795.034851,172.605270 
	C796.036926,173.313660 797.890808,172.817078 799.355957,172.870514 
	C798.838196,171.442749 798.744202,169.451294 797.727600,168.687103 
	C793.810608,165.742569 789.279724,165.390991 785.122070,167.924820 
	C783.376892,168.988342 781.349060,171.597290 781.528381,173.282425 
	C781.735657,175.230499 783.923096,177.435287 785.819336,178.613480 
	C788.007080,179.972794 790.869202,180.200699 793.325989,181.197296 
	C794.211426,181.556412 794.770508,182.719940 795.478516,183.516388 
	C794.650024,184.248062 793.641846,185.727585 793.024719,185.579315 
	C790.607422,184.998611 788.333618,183.846405 785.965332,183.025314 
	C784.830872,182.632019 783.604431,182.504120 782.419617,182.256027 
	C782.184753,183.415573 781.353027,185.090912 781.826294,185.638550 
	C783.282776,187.324051 785.238342,188.578232 787.000000,190.000000 
	C783.969421,190.000000 780.938782,190.000000 777.453491,189.531723 
	C777.000427,185.397568 777.010559,181.731689 777.001892,178.065826 
	C776.977905,167.926910 774.238403,165.598083 764.371399,167.248978 
	C763.417786,167.408524 762.391479,167.441101 761.444031,167.275040 
	C757.985535,166.668854 756.987793,168.444016 757.008789,171.504333 
	C757.051086,177.669235 757.007935,183.834747 757.000000,190.000000 
M728.002686,95.848328 
	C728.002686,108.982132 728.002686,122.115944 728.002686,135.249741 
	C728.248047,135.245865 728.493469,135.241989 728.738831,135.238098 
	C728.738831,120.371132 728.738831,105.504166 728.738831,90.637199 
	C728.493652,90.635872 728.248474,90.634552 728.003296,90.633224 
	C728.003296,92.084457 728.003296,93.535690 728.002686,95.848328 
M780.002441,109.502106 
	C780.002441,118.439468 780.002441,127.376831 780.002441,136.314194 
	C780.250305,136.311432 780.498108,136.308670 780.745972,136.305893 
	C780.745972,122.102066 780.745972,107.898232 780.745972,93.694397 
	C780.498108,93.689484 780.250305,93.684570 780.002441,93.679665 
	C780.002441,98.621056 780.002441,103.562454 780.002441,109.502106 
M676.996826,131.013519 
	C676.996826,118.627312 676.996826,106.241096 676.996826,93.854889 
	C676.772766,93.860634 676.548645,93.866371 676.324585,93.872116 
	C676.324585,107.662895 676.324585,121.453674 676.324585,135.244446 
	C676.548279,135.242966 676.771912,135.241486 676.995605,135.240005 
	C676.995605,134.104050 676.995605,132.968109 676.996826,131.013519 
M679.996704,182.003174 
	C679.996704,175.298965 679.996704,168.594757 679.996704,161.890564 
	C679.769531,161.900620 679.542358,161.910690 679.315186,161.920761 
	C679.315186,170.013428 679.315186,178.106110 679.315186,186.198776 
	C679.541870,186.201126 679.768555,186.203461 679.995239,186.205811 
	C679.995239,185.076385 679.995239,183.946976 679.996704,182.003174 
M724.216370,163.644073 
	C724.470337,162.342529 724.724304,161.040985 724.978210,159.739441 
	C723.843933,159.914505 722.709717,160.089584 721.575378,160.264679 
	C722.219543,161.417328 722.863647,162.569977 724.216370,163.644073 
M728.434998,177.687973 
	C728.243164,175.301147 728.051270,172.914322 727.859436,170.527496 
	C727.666504,170.564163 727.473511,170.600830 727.280579,170.637482 
	C727.280579,175.603699 727.280579,180.569931 727.280579,185.536148 
	C727.530640,185.545441 727.780762,185.554733 728.030823,185.564011 
	C728.172852,183.185486 728.314880,180.806961 728.434998,177.687973 
M594.526306,134.491867 
	C594.526306,134.491867 594.485107,134.504929 594.526306,134.491867 
z"/>
<path fill="#403E71" opacity="1.000000" stroke="none" 
	d="
M1.000000,69.468658 
	C3.092150,63.255993 4.896552,57.381744 7.410036,51.828438 
	C8.502282,49.415222 10.782459,47.297310 12.983646,45.667156 
	C29.009266,33.798923 47.865345,32.331154 66.740891,32.173733 
	C80.042549,32.062805 93.406677,33.533070 105.848053,38.900154 
	C111.308670,41.255814 117.023148,43.781395 121.405998,47.618992 
	C124.493164,50.322109 126.573830,55.185703 127.305260,59.397041 
	C130.880600,79.982712 133.353577,100.788567 124.637909,120.704597 
	C122.533653,125.512978 118.064072,130.511703 113.400391,132.739426 
	C100.600731,138.853516 86.906670,142.650665 72.428490,141.976990 
	C61.315952,141.459900 50.050003,141.676941 39.158939,139.793869 
	C30.816484,138.351456 22.231125,135.298447 15.073685,130.841980 
	C7.488489,126.119164 3.103198,117.968544 2.081524,108.601234 
	C1.938362,107.288643 1.587969,105.998650 1.166751,104.349098 
	C1.000000,92.645775 1.000000,81.291542 1.000000,69.468658 
M68.693031,119.518097 
	C74.565079,118.003212 75.804375,113.254440 75.880669,108.280800 
	C76.092789,94.453842 76.083504,80.619995 75.910088,66.792015 
	C75.815819,59.274776 72.121239,55.926842 64.811127,56.005547 
	C57.379791,56.085556 55.135086,58.344444 55.056690,66.608322 
	C54.925499,80.437508 54.931007,94.269554 55.047455,108.098976 
	C55.122986,117.068611 58.761860,120.221199 68.693031,119.518097 
z"/>
<path fill="#403E71" opacity="1.000000" stroke="none" 
	d="
M801.000000,138.531342 
	C796.515564,138.992981 792.027222,138.866043 787.547913,139.014282 
	C783.455933,139.149704 781.935364,137.287994 781.976501,133.314453 
	C782.088318,122.519753 782.108032,111.721626 781.956421,100.927773 
	C781.884460,95.799286 781.499878,90.660797 780.970764,85.556503 
	C780.174561,77.875839 777.372742,74.412537 771.468811,73.254448 
	C765.068970,71.999100 756.830444,75.109550 754.045715,80.314827 
	C752.592224,83.031807 752.004700,86.212074 751.014404,89.592911 
	C751.002747,90.002747 751.000122,89.959274 751.000122,89.959274 
	C750.666260,92.238426 750.062622,94.515335 750.043640,96.797096 
	C749.944031,108.783646 749.884888,120.772865 750.045471,132.758026 
	C750.104553,137.165405 748.594177,139.109375 743.977905,139.043869 
	C727.985718,138.816925 730.249329,140.542160 729.984558,125.240501 
	C729.748657,111.611855 729.496826,97.980598 728.972656,84.361244 
	C728.758667,78.799896 725.143799,74.759956 720.129272,73.600189 
	C714.754761,72.357155 709.405640,72.635475 704.812439,77.800102 
	C701.447693,81.583466 698.977905,85.237778 697.677734,90.416031 
	C690.823792,88.534843 684.373901,86.322060 677.923950,84.109283 
	C677.958740,78.123878 678.059570,72.137863 678.003479,66.153313 
	C677.970337,62.611881 679.502563,60.878544 683.087585,61.020027 
	C684.249207,61.065872 685.414856,61.003040 686.578674,61.000278 
	C695.689758,60.978649 695.689758,60.979424 697.864136,69.400154 
	C705.044373,62.362869 712.924744,57.666111 723.417053,57.858414 
	C733.955994,58.051575 741.304382,62.642365 746.414429,72.597649 
	C753.830750,60.718903 764.289490,57.055206 776.630371,58.056313 
	C787.868530,58.967968 796.046570,62.209438 800.842285,78.676910 
	C801.000000,98.687561 801.000000,118.375122 801.000000,138.531342 
z"/>
<path fill="#0E9052" opacity="1.000000" stroke="none" 
	d="
M477.531342,1.000000 
	C477.999146,15.452136 478.018188,29.904312 477.988495,44.356388 
	C477.975281,50.801579 477.787292,50.975540 471.174835,50.990349 
	C459.712860,51.016026 448.248749,50.869652 436.789825,51.057575 
	C432.520294,51.127594 430.885132,49.651257 430.938416,45.292946 
	C431.115173,30.842983 431.001556,16.389467 430.999634,1.468657 
	C446.354218,1.000000 461.708466,1.000000 477.531342,1.000000 
z"/>
<path fill="#0F9052" opacity="1.000000" stroke="none" 
	d="
M625.454102,190.000000 
	C623.313843,189.387894 621.638367,188.744339 619.939026,188.171356 
	C617.627686,187.392059 615.053589,182.127991 616.613525,180.572495 
	C617.353088,179.835007 620.647095,180.123245 621.174011,180.960205 
	C624.355103,186.013321 629.119934,185.262207 633.670959,184.633667 
	C635.068970,184.440582 637.095520,182.535767 637.225769,181.251648 
	C637.347290,180.053131 635.589539,178.021866 634.205933,177.446640 
	C631.324158,176.248505 628.142334,175.772934 625.085083,174.995697 
	C620.883179,173.927521 617.415527,171.642288 617.334106,167.081055 
	C617.251892,162.480804 620.788452,160.230408 624.864624,158.926834 
	C630.667175,157.071198 638.039185,159.047592 640.472351,163.450439 
	C641.083557,164.556396 640.553772,166.292908 640.548340,167.739655 
	C639.144653,167.361908 637.077637,167.439133 636.452454,166.527527 
	C633.780945,162.631973 630.027710,162.616882 626.213562,163.366455 
	C624.927429,163.619202 623.422241,165.211792 623.014648,166.506149 
	C622.790649,167.217545 624.440552,169.096283 625.597900,169.550064 
	C628.356873,170.631897 631.364807,171.057251 634.199341,171.973099 
	C638.231934,173.276031 642.413818,174.861618 642.761353,179.860291 
	C643.111328,184.892899 639.602173,187.567505 635.242249,189.762207 
	C631.969421,190.000000 628.938782,190.000000 625.454102,190.000000 
z"/>
<path fill="#0F9052" opacity="1.000000" stroke="none" 
	d="
M787.474121,190.000000 
	C785.238342,188.578232 783.282776,187.324051 781.826294,185.638550 
	C781.353027,185.090912 782.184753,183.415573 782.419617,182.256027 
	C783.604431,182.504120 784.830872,182.632019 785.965332,183.025314 
	C788.333618,183.846405 790.607422,184.998611 793.024719,185.579315 
	C793.641846,185.727585 794.650024,184.248062 795.478516,183.516388 
	C794.770508,182.719940 794.211426,181.556412 793.325989,181.197296 
	C790.869202,180.200699 788.007080,179.972794 785.819336,178.613480 
	C783.923096,177.435287 781.735657,175.230499 781.528381,173.282425 
	C781.349060,171.597290 783.376892,168.988342 785.122070,167.924820 
	C789.279724,165.390991 793.810608,165.742569 797.727600,168.687103 
	C798.744202,169.451294 798.838196,171.442749 799.355957,172.870514 
	C797.890808,172.817078 796.036926,173.313660 795.034851,172.605270 
	C792.226624,170.620132 789.690369,170.660461 786.577454,173.311264 
	C791.166870,175.112274 795.756226,176.913284 800.672852,178.857147 
	C801.000000,182.599579 801.000000,186.199173 801.000000,190.000000 
	C796.650696,190.000000 792.299500,190.000000 787.474121,190.000000 
z"/>
<path fill="#108F52" opacity="1.000000" stroke="none" 
	d="
M738.437500,190.000000 
	C732.685425,187.336212 729.523315,183.527145 729.942871,177.082672 
	C730.462463,169.102066 734.794739,165.367584 742.894104,166.559799 
	C749.542480,167.538406 751.942017,169.783051 752.874329,175.895432 
	C753.868896,182.415955 751.841980,186.154755 745.242554,189.762634 
	C742.958313,190.000000 740.916687,190.000000 738.437500,190.000000 
M747.421509,175.183670 
	C744.402466,172.570038 741.403442,168.048019 737.497009,173.658401 
	C736.044495,175.744339 735.150513,179.159119 735.794373,181.468048 
	C736.311707,183.322937 739.571045,185.594254 741.543579,185.529968 
	C743.515320,185.465714 745.799622,183.013245 747.179443,181.064285 
	C748.066467,179.811340 747.566772,177.576645 747.421509,175.183670 
z"/>
<path fill="#108F52" opacity="1.000000" stroke="none" 
	d="
M654.437500,190.000000 
	C646.793091,185.864548 644.943970,182.010605 646.115479,174.527222 
	C646.885193,169.610733 649.983032,166.983871 654.452942,167.108810 
	C658.672180,167.226715 664.775574,167.396988 666.658508,169.998810 
	C670.962585,175.946091 670.806335,185.669678 661.243164,189.763092 
	C658.958313,190.000000 656.916687,190.000000 654.437500,190.000000 
M661.156860,184.740723 
	C662.069214,182.189072 663.546265,179.680954 663.747253,177.074448 
	C663.984253,174.000061 658.763062,170.256958 656.255249,171.116043 
	C652.013916,172.568985 650.153198,176.480179 651.540649,181.026138 
	C652.868713,185.377655 655.171387,186.427612 661.156860,184.740723 
z"/>
<path fill="#0F9052" opacity="1.000000" stroke="none" 
	d="
M757.400024,190.000000 
	C757.007935,183.834747 757.051086,177.669235 757.008789,171.504333 
	C756.987793,168.444016 757.985535,166.668854 761.444031,167.275040 
	C762.391479,167.441101 763.417786,167.408524 764.371399,167.248978 
	C774.238403,165.598083 776.977905,167.926910 777.001892,178.065826 
	C777.010559,181.731689 777.000427,185.397568 776.999390,189.531723 
	C775.933289,190.000000 774.866638,190.000000 773.241638,189.614746 
	C772.322266,184.692001 771.961182,180.154495 771.600098,175.616989 
	C771.314148,175.626389 771.028137,175.635803 770.742126,175.645203 
	C770.742126,179.206390 770.742126,182.767578 770.742126,186.328751 
	C769.887390,182.482910 770.155090,178.654297 769.746033,174.899384 
	C769.597595,173.536804 767.359192,171.121765 766.889404,171.302765 
	C765.144043,171.975113 763.306152,173.263428 762.342590,174.835144 
	C761.587402,176.066940 762.133972,178.064255 761.993286,179.712173 
	C761.700378,183.144714 761.335388,186.571091 761.000000,190.000000 
	C759.933289,190.000000 758.866638,190.000000 757.400024,190.000000 
z"/>
<path fill="#0F9052" opacity="1.000000" stroke="none" 
	d="
M688.466125,190.000000 
	C683.677246,186.387650 680.933594,174.293427 683.367432,169.039764 
	C683.709839,168.300659 685.166077,167.279953 685.445374,167.453552 
	C686.416748,168.057297 687.686218,169.071259 687.781128,170.033844 
	C688.106262,173.332932 688.053162,176.677460 688.005798,180.002670 
	C687.962036,183.072266 689.025513,185.554123 692.293945,185.567490 
	C695.664307,185.581268 697.845947,183.554031 697.934143,179.905655 
	C698.006592,176.912094 697.763733,173.884033 698.157166,170.937561 
	C698.328064,169.657196 699.744080,168.543076 700.594604,167.353439 
	C701.384399,168.600159 702.802490,169.820267 702.856628,171.098129 
	C703.109863,177.077621 702.987244,183.073029 702.999451,189.531372 
	C698.310730,190.000000 693.621521,190.000000 688.466125,190.000000 
z"/>
<path fill="#0E9052" opacity="1.000000" stroke="none" 
	d="
M713.416626,190.000000 
	C709.945923,188.013397 709.029480,185.235519 708.865906,181.593170 
	C708.690491,177.686066 707.488708,173.808884 706.569702,169.958038 
	C706.097961,167.980911 710.277649,161.819244 712.523315,161.080856 
	C714.060547,163.336945 715.666748,165.418701 716.919617,167.694962 
	C717.313904,168.411224 717.120300,169.944153 716.582458,170.601654 
	C712.624878,175.439758 712.934814,180.922577 717.373596,185.804993 
	C718.094238,186.597565 717.962708,188.164841 718.112549,189.687012 
	C716.611084,190.000000 715.222229,190.000000 713.416626,190.000000 
z"/>
<path fill="#4C6971" opacity="1.000000" stroke="none" 
	d="
M761.460632,190.000000 
	C761.335388,186.571091 761.700378,183.144714 761.993286,179.712173 
	C762.133972,178.064255 761.587402,176.066940 762.342590,174.835144 
	C763.306152,173.263428 765.144043,171.975113 766.889404,171.302765 
	C767.359192,171.121765 769.597595,173.536804 769.746033,174.899384 
	C770.155090,178.654297 769.887390,182.482910 770.742126,186.328751 
	C770.742126,182.767578 770.742126,179.206390 770.742126,175.645203 
	C771.028137,175.635803 771.314148,175.626389 771.600098,175.616989 
	C771.961182,180.154495 772.322266,184.692001 772.841675,189.614746 
	C769.307068,190.000000 765.614197,190.000000 761.460632,190.000000 
z"/>
<path fill="#0E9052" opacity="1.000000" stroke="none" 
	d="
M673.399963,190.000000 
	C673.005188,181.364273 672.891113,172.725327 673.122925,164.095688 
	C673.165771,162.497223 674.604004,160.936249 675.398193,159.357941 
	C676.259399,160.874954 677.854187,162.389084 677.860107,163.909439 
	C677.893250,172.348267 677.540283,180.788605 677.159790,189.614197 
	C675.933289,190.000000 674.866638,190.000000 673.399963,190.000000 
z"/>
<path fill="#0E9052" opacity="1.000000" stroke="none" 
	d="
M722.400024,190.000000 
	C721.717163,183.263199 721.346497,176.527435 721.268066,169.788254 
	C721.258789,168.990906 722.850037,168.174896 723.699341,167.367523 
	C724.445068,168.472473 725.793213,169.554626 725.836060,170.686234 
	C726.067993,176.804993 725.976685,182.935974 725.998413,189.531372 
	C724.933289,190.000000 723.866638,190.000000 722.400024,190.000000 
z"/>
<path fill="#159050" opacity="1.000000" stroke="none" 
	d="
M583.852112,157.635712 
	C583.909180,166.866821 583.935059,176.098373 584.059143,185.328583 
	C584.076538,186.625153 584.574768,187.915283 584.925232,189.604202 
	C584.555542,190.000000 584.111084,190.000000 583.333313,190.000000 
	C580.792786,179.269257 578.804199,168.522415 581.107666,157.225677 
	C582.355835,157.181824 583.103943,157.408768 583.852112,157.635712 
z"/>
<path fill="#395869" opacity="1.000000" stroke="none" 
	d="
M429.750000,1.000000 
	C430.000000,16.765760 430.000000,32.531521 430.000000,48.297283 
	C429.666748,48.297127 429.333527,48.296967 429.000275,48.296810 
	C429.000275,32.843643 429.000275,17.390480 429.000122,1.468657 
	C429.000000,1.000000 429.500000,1.000000 429.750000,1.000000 
z"/>
<path fill="#159050" opacity="1.000000" stroke="none" 
	d="
M479.750000,1.000000 
	C480.000000,16.466600 480.000000,31.933203 480.000000,47.399803 
	C479.667480,47.402023 479.334961,47.404243 479.002441,47.406467 
	C479.002441,32.250080 479.002441,17.093697 479.001221,1.468656 
	C479.000000,1.000000 479.500000,1.000000 479.750000,1.000000 
z"/>
<path fill="#403E71" opacity="1.000000" stroke="none" 
	d="
M197.007156,86.993591 
	C194.736221,85.767181 192.364197,83.441689 190.224167,83.638512 
	C188.273651,83.817902 186.029846,86.444336 184.925430,88.527679 
	C183.915466,90.432846 184.052505,93.053589 184.038345,95.361168 
	C183.961716,107.855904 183.883286,120.352798 184.049973,132.845688 
	C184.109940,137.339447 182.438553,139.128403 177.896515,139.048660 
	C167.237259,138.861526 156.571060,138.886566 145.910660,139.037109 
	C141.658112,139.097153 139.942307,137.462189 139.961609,133.154388 
	C140.066147,109.830551 140.075348,86.505623 139.951416,63.181961 
	C139.927689,58.718090 141.508514,56.867241 146.076752,56.950821 
	C156.402603,57.139740 166.734436,56.976898 177.063629,57.015408 
	C183.437805,57.039173 183.894394,57.530319 183.993073,63.813816 
	C184.018600,65.439766 183.996918,67.066460 183.996918,70.054008 
	C190.874496,58.475288 200.864868,54.791924 212.140259,54.533905 
	C223.664383,54.270195 233.532410,57.961456 238.951645,70.498863 
	C240.543411,67.676727 241.208725,64.988884 242.920532,63.766041 
	C246.878113,60.938950 251.103851,58.125877 255.652466,56.564449 
	C264.515564,53.521946 273.758179,53.703636 282.660400,56.584515 
	C293.496948,60.091370 300.723907,70.679863 300.910889,83.320702 
	C301.157318,99.977287 300.926666,116.640457 301.027008,133.300034 
	C301.050964,137.283875 299.548950,139.069473 295.443573,139.023056 
	C284.449280,138.898697 273.451752,138.896164 262.457489,139.020813 
	C258.268982,139.068314 256.941498,137.102066 256.974609,133.200378 
	C257.076294,121.205925 257.028015,109.209892 256.977478,97.214722 
	C256.967712,94.892548 256.802917,92.556046 256.501770,90.253342 
	C255.941879,85.972572 253.965073,82.883278 249.108994,83.273857 
	C244.227615,83.666466 242.961273,87.002892 242.986099,91.363586 
	C243.050583,102.692146 243.047821,114.021622 242.982819,125.350227 
	C242.894897,140.672150 244.680466,138.892197 229.392838,138.988541 
	C220.896469,139.042084 212.397247,138.874008 203.903702,139.036224 
	C199.637985,139.117691 197.920578,137.434006 197.966400,133.138000 
	C198.103226,120.311127 198.039932,107.481628 197.975464,94.653564 
	C197.963852,92.345421 197.575012,90.039185 197.179596,87.366638 
	C196.998856,87.001213 197.007156,86.993591 197.007156,86.993591 
z"/>
<path fill="#403E71" opacity="1.000000" stroke="none" 
	d="
M357.422791,66.247040 
	C357.250732,64.149002 357.115234,62.344425 356.882599,59.246464 
	C359.752411,65.823830 360.995880,61.616680 363.537506,60.236103 
	C371.171997,56.089127 379.463287,53.314507 388.381653,54.288681 
	C392.650604,54.754982 396.853729,55.908535 401.055878,56.883625 
	C409.678375,58.884449 414.259155,65.030113 416.342163,73.021156 
	C417.758118,78.453102 418.735168,84.138916 418.874207,89.736893 
	C419.225647,103.884735 419.021118,118.047165 418.981567,132.203598 
	C418.964111,138.457413 418.433289,138.961884 412.041046,138.984558 
	C401.215576,139.022995 390.389740,139.031174 379.564392,138.978500 
	C373.594910,138.949463 373.043213,138.385040 373.019928,132.307083 
	C372.967621,118.650421 373.052460,104.992950 372.942200,91.336945 
	C372.898651,85.945412 370.729736,83.452332 366.130798,83.265190 
	C362.058990,83.099503 358.849792,84.561768 358.129272,89.051666 
	C357.603882,92.325508 357.091644,95.642433 357.052338,98.945854 
	C356.917572,110.269531 356.906860,121.596710 357.035675,132.920425 
	C357.082275,137.019943 355.783020,139.097458 351.324097,139.035309 
	C340.001099,138.877472 328.674072,138.919769 317.349609,139.008514 
	C313.521454,139.038498 311.979919,137.378616 311.989624,133.594193 
	C312.049927,109.944664 312.058594,86.294762 311.975220,62.645367 
	C311.960999,58.618080 313.553925,56.931087 317.611237,56.976120 
	C328.435455,57.096264 339.263214,57.112251 350.086761,56.963470 
	C354.323578,56.905235 356.322968,58.505272 356.016235,62.833717 
	C355.911194,64.316299 356.119293,65.821083 356.184357,67.315720 
	C356.609344,67.057320 357.034363,66.798904 357.422791,66.247040 
z"/>
<path fill="#403E71" opacity="1.000000" stroke="none" 
	d="
M451.000488,138.998840 
	C445.835052,138.992386 441.167267,138.896378 436.504456,139.007843 
	C432.787598,139.096725 430.983978,137.645447 430.994293,133.743652 
	C431.057465,109.915703 431.057373,86.087418 430.994476,62.259476 
	C430.984192,58.360161 432.785126,56.962479 436.501923,56.988724 
	C448.498718,57.073437 460.497162,57.096443 472.493408,56.978947 
	C476.642731,56.938301 478.038086,58.827068 478.025360,62.761917 
	C477.949341,86.256630 477.931152,109.751961 478.038452,133.246429 
	C478.058502,137.636292 476.168152,139.135880 471.994751,139.034088 
	C465.167053,138.867538 458.332153,138.995270 451.000488,138.998840 
z"/>
<path fill="#403E71" opacity="1.000000" stroke="none" 
	d="
M544.921082,137.144531 
	C528.629028,141.593857 513.672546,139.056900 500.375122,129.639282 
	C496.500946,126.895470 493.865784,121.760872 491.813080,117.203964 
	C485.028381,102.142159 485.599792,87.412407 494.035522,72.779442 
	C506.813721,50.613838 544.938965,51.109428 558.807922,64.706955 
	C563.354553,69.164650 565.711670,74.157227 567.721375,79.717232 
	C568.679688,82.368629 567.845154,83.938965 564.829773,83.952934 
	C562.163391,83.965286 559.480225,83.799271 556.834045,84.038719 
	C551.393616,84.531029 547.934814,83.298737 545.215393,77.515495 
	C542.432495,71.597061 536.257080,68.540688 529.139404,69.083153 
	C520.958557,69.706650 514.891357,73.609756 511.586578,81.167671 
	C507.253235,91.077728 507.070343,101.283096 510.870880,111.348885 
	C513.025024,117.054146 517.023621,121.506973 522.903015,123.725204 
	C533.114624,127.577904 542.268127,123.142853 546.513245,113.342430 
	C548.285828,109.250244 550.496399,107.602448 554.731384,107.968262 
	C557.047302,108.168312 559.394897,107.991180 561.728088,108.004417 
	C568.633972,108.043602 568.989624,108.632294 567.152466,115.107063 
	C563.919434,126.501907 556.378784,133.499832 544.921082,137.144531 
z"/>
<path fill="#B2D45B" opacity="1.000000" stroke="none" 
	d="
M578.911011,80.861130 
	C579.397522,79.676933 579.884033,78.492737 580.909729,77.143616 
	C581.631592,76.989815 581.814270,77.000938 582.019836,77.402832 
	C583.679688,87.479591 590.240295,93.485046 599.532288,93.803246 
	C607.921570,94.090538 615.647400,87.936508 617.536560,79.461891 
	C619.733337,69.607262 614.477600,61.494545 603.118774,57.206585 
	C604.851318,56.502216 606.583862,55.797848 608.835693,55.407150 
	C610.615784,56.783161 611.856934,57.870064 613.140869,58.903763 
	C620.687378,64.979454 623.247864,76.107361 619.041382,84.608978 
	C614.461121,93.866005 604.291809,98.419930 594.422852,95.855003 
	C586.360535,93.759605 582.087219,87.920349 578.911011,80.861130 
z"/>
<path fill="#A5CE4A" opacity="1.000000" stroke="none" 
	d="
M578.642334,81.063644 
	C582.087219,87.920349 586.360535,93.759605 594.422852,95.855003 
	C604.291809,98.419930 614.461121,93.866005 619.041382,84.608978 
	C623.247864,76.107361 620.687378,64.979454 613.140869,58.903763 
	C611.856934,57.870064 610.615784,56.783161 609.192871,55.442619 
	C610.430298,54.769508 611.829773,54.374599 613.716797,54.268818 
	C615.477783,56.283028 616.700989,58.047924 618.032654,59.726711 
	C626.577637,70.498993 625.479736,85.432808 615.501526,93.822968 
	C605.503418,102.229858 590.609863,100.901497 581.419678,90.861717 
	C580.110229,89.431267 578.452820,88.319321 576.966187,87.045822 
	C576.975891,87.031677 576.968506,87.024590 576.978760,86.681877 
	C576.990662,85.882256 576.992371,85.425354 576.994019,84.968445 
	C577.453918,83.734360 577.913818,82.500267 578.642334,81.063644 
z"/>
<path fill="#159050" opacity="1.000000" stroke="none" 
	d="
M635.939819,55.134430 
	C642.008606,56.431835 647.408875,58.993271 651.535095,63.903816 
	C650.786621,65.594292 649.861877,66.884209 649.842834,68.187439 
	C649.762085,73.679749 649.951599,79.176018 649.700500,84.771545 
	C648.237732,85.203438 647.116699,85.534637 645.549805,85.885063 
	C643.627319,86.142647 642.150513,86.381004 640.744690,86.158401 
	C642.878601,74.921379 642.784607,64.489418 635.939819,55.134430 
z"/>
<path fill="#95C649" opacity="1.000000" stroke="none" 
	d="
M576.956482,87.059967 
	C578.452820,88.319321 580.110229,89.431267 581.419678,90.861717 
	C590.609863,100.901497 605.503418,102.229858 615.501526,93.822968 
	C625.479736,85.432808 626.577637,70.498993 618.032654,59.726711 
	C616.700989,58.047924 615.477783,56.283028 614.088013,54.229980 
	C614.758606,53.630981 615.545471,53.359940 616.723145,53.463486 
	C617.824036,55.120354 618.366028,56.537514 619.270142,57.664143 
	C628.766907,69.498192 628.816162,81.330750 619.443115,93.170349 
	C618.452515,94.421654 617.916321,96.032700 617.154968,97.622803 
	C617.140564,97.768738 617.109619,98.061478 616.812012,98.160202 
	C615.422607,98.867661 614.330811,99.476395 612.818726,100.100853 
	C610.138367,100.579117 607.875366,101.027771 605.618652,101.506485 
	C593.061218,104.170326 580.213989,97.698128 576.956482,87.059967 
z"/>
<path fill="#5EB04D" opacity="1.000000" stroke="none" 
	d="
M573.172241,102.788269 
	C573.364563,100.102303 573.556885,97.416344 574.244751,94.499863 
	C575.569397,94.799217 576.524719,95.201630 577.207764,95.878784 
	C583.552673,102.169312 590.707214,106.266045 600.108032,105.326500 
	C601.668823,105.170509 603.382935,106.548805 604.878418,107.478973 
	C603.821472,108.823631 602.912354,109.907394 601.814819,111.115753 
	C601.386414,111.443291 601.237915,111.699303 600.964722,112.180481 
	C600.636169,112.498512 600.523743,112.644447 600.262207,112.854645 
	C599.946777,113.067467 599.754395,113.163696 599.077393,113.174545 
	C588.821411,112.923096 580.871704,108.163223 573.172241,102.788269 
z"/>
<path fill="#138D50" opacity="1.000000" stroke="none" 
	d="
M586.105469,134.302826 
	C584.450928,132.811676 582.046875,131.630981 581.277283,129.773254 
	C578.577209,123.254875 576.439819,116.503426 574.329712,109.681755 
	C578.962280,111.985054 583.343445,114.466034 587.750183,116.900909 
	C589.878601,118.076942 592.054932,119.166321 594.170898,120.542740 
	C594.116821,120.957092 594.101440,121.123642 593.858459,121.512848 
	C592.706055,123.415634 591.781250,125.095741 590.605957,127.004959 
	C589.514709,129.072495 588.673950,130.910919 587.613525,132.939758 
	C586.964294,133.521042 586.534851,133.911926 586.105469,134.302826 
z"/>
<path fill="#11844C" opacity="1.000000" stroke="none" 
	d="
M650.042175,84.670853 
	C649.951599,79.176018 649.762085,73.679749 649.842834,68.187439 
	C649.861877,66.884209 650.786621,65.594292 651.577026,64.155411 
	C657.682007,68.232651 662.285278,73.432007 664.961426,80.949440 
	C665.020142,82.405579 665.005737,83.149796 664.554321,83.916763 
	C661.066589,84.095741 658.015869,84.251968 654.552734,84.412544 
	C652.774231,84.501541 651.408203,84.586197 650.042175,84.670853 
z"/>
<path fill="#3DA34F" opacity="1.000000" stroke="none" 
	d="
M635.566650,55.070763 
	C642.784607,64.489418 642.878601,74.921379 640.488220,86.282829 
	C639.071716,87.296692 637.982605,87.725182 636.629272,88.170715 
	C636.014709,88.231522 635.664307,88.275276 635.157471,87.979950 
	C635.021729,85.690186 635.176270,83.730011 635.038574,81.790573 
	C634.601379,75.633560 634.361450,69.437164 633.425110,63.351418 
	C632.937988,60.185444 631.147278,57.220039 629.945435,54.164032 
	C631.694763,54.445053 633.444153,54.726074 635.566650,55.070763 
z"/>
<path fill="#BCD970" opacity="1.000000" stroke="none" 
	d="
M602.823486,57.257416 
	C614.477600,61.494545 619.733337,69.607262 617.536560,79.461891 
	C615.647400,87.936508 607.921570,94.090538 599.532288,93.803246 
	C590.240295,93.485046 583.679688,87.479591 582.150146,77.305267 
	C583.333557,78.541405 584.197144,80.457016 585.535828,81.945206 
	C587.504028,84.133141 589.811401,86.015930 591.985901,88.018524 
	C591.997559,88.008324 591.977600,88.037682 592.177917,88.316086 
	C594.593445,89.380455 596.808716,90.166420 599.349121,90.949554 
	C600.107971,90.948608 600.541565,90.950485 601.358521,90.940872 
	C604.169128,89.629204 606.596375,88.329041 609.203613,86.808792 
	C609.931702,86.067566 610.479919,85.546432 611.345093,84.883125 
	C617.358337,79.520294 617.045349,70.262054 610.807495,65.794937 
	C610.066101,65.067047 609.544922,64.518959 608.852661,63.680054 
	C606.077881,61.916115 603.473999,60.443001 600.870178,58.969883 
	C601.422791,58.416008 601.975464,57.862129 602.823486,57.257416 
z"/>
<path fill="#D3E7A3" opacity="1.000000" stroke="none" 
	d="
M587.489441,67.275749 
	C587.489441,67.275749 587.664490,67.107460 588.107056,67.041237 
	C589.406128,66.393692 590.262756,65.812378 591.119385,65.231064 
	C591.119385,65.231071 591.507263,65.090164 592.102722,65.003052 
	C594.163940,64.611343 595.625305,64.283371 597.096191,64.006111 
	C604.636719,62.584763 610.995789,67.184685 611.691711,74.551651 
	C612.315857,81.157639 607.564392,86.605377 600.864136,86.965988 
	C592.831299,87.398331 587.949585,82.641716 588.024902,74.624817 
	C588.047852,72.177025 587.678894,69.725548 587.489441,67.275749 
M606.687561,80.694557 
	C610.077087,76.616455 609.881226,73.317009 605.704712,69.635201 
	C605.475281,69.409439 605.248718,69.180786 604.638916,68.353081 
	C600.234680,65.052109 595.836426,65.285828 592.834351,68.980431 
	C589.250916,73.390495 589.577576,79.107048 593.631226,82.924622 
	C596.851807,85.957672 601.418335,85.607346 605.362732,81.705452 
	C605.589233,81.476791 605.818726,81.251129 606.687561,80.694557 
z"/>
<path fill="#82BF4B" opacity="1.000000" stroke="none" 
	d="
M617.169312,97.476852 
	C617.916321,96.032700 618.452515,94.421654 619.443115,93.170349 
	C628.816162,81.330750 628.766907,69.498192 619.270142,57.664143 
	C618.366028,56.537514 617.824036,55.120354 617.048462,53.498642 
	C618.044067,53.138699 619.105164,53.118183 620.693970,53.445801 
	C630.036621,64.770164 632.286316,76.687721 626.429810,89.795593 
	C626.102173,90.528862 626.083679,91.400223 625.736816,92.390930 
	C625.028442,93.032257 624.504639,93.489975 623.646362,94.052582 
	C621.264343,95.263924 619.216797,96.370384 617.169312,97.476852 
z"/>
<path fill="#CAE190" opacity="1.000000" stroke="none" 
	d="
M587.323364,67.420898 
	C587.678894,69.725548 588.047852,72.177025 588.024902,74.624817 
	C587.949585,82.641716 592.831299,87.398331 600.864136,86.965988 
	C607.564392,86.605377 612.315857,81.157639 611.691711,74.551651 
	C610.995789,67.184685 604.636719,62.584763 597.096191,64.006111 
	C595.625305,64.283371 594.163940,64.611343 592.304810,64.961311 
	C592.577942,64.194633 593.244507,63.382576 594.442688,62.279274 
	C599.657471,62.648979 604.340576,63.309929 609.023682,63.970871 
	C609.544922,64.518959 610.066101,65.067047 610.920593,66.143585 
	C614.959473,72.836296 614.289185,78.946724 611.028076,85.025291 
	C610.479919,85.546432 609.931702,86.067566 608.851990,86.900024 
	C605.872070,88.458344 603.423645,89.705353 600.975220,90.952362 
	C600.541565,90.950485 600.107971,90.948608 599.136292,90.686432 
	C596.391357,89.629982 594.184509,88.833832 591.977600,88.037689 
	C591.977600,88.037682 591.997559,88.008324 591.797119,87.739090 
	C585.795959,81.979187 585.082458,75.293777 587.020813,67.985573 
	C587.020813,67.985573 587.157227,67.566040 587.323364,67.420898 
z"/>
<path fill="#82BF4B" opacity="1.000000" stroke="none" 
	d="
M605.026184,107.218094 
	C603.382935,106.548805 601.668823,105.170509 600.108032,105.326500 
	C590.707214,106.266045 583.552673,102.169312 577.207764,95.878784 
	C576.524719,95.201630 575.569397,94.799217 574.433777,94.147194 
	C574.527100,91.840744 574.927002,89.656456 575.861694,87.230194 
	C576.587158,87.000336 576.777832,87.012466 576.968506,87.024590 
	C576.968506,87.024590 576.975891,87.031677 576.966187,87.045822 
	C580.213989,97.698128 593.061218,104.170326 605.618652,101.506485 
	C607.875366,101.027771 610.138367,100.579117 612.612122,100.369110 
	C610.225891,102.820457 607.626038,105.019279 605.026184,107.218094 
z"/>
<path fill="#178D50" opacity="1.000000" stroke="none" 
	d="
M664.991394,83.894012 
	C665.005737,83.149796 665.020142,82.405579 665.046021,81.288864 
	C669.064758,81.957474 673.071960,82.998581 677.501587,84.074478 
	C684.373901,86.322060 690.823792,88.534843 697.630859,90.786346 
	C703.013489,93.874817 708.038879,96.924576 713.105103,100.406113 
	C713.145874,100.837898 712.920654,101.107826 712.920654,101.107819 
	C708.215027,98.788612 703.509338,96.469406 698.195923,93.795067 
	C691.052185,92.012146 684.516113,90.584366 677.980103,89.156586 
	C675.410278,88.864883 672.840393,88.573181 670.075073,87.973175 
	C668.250183,86.407921 666.620789,85.150963 664.991394,83.894012 
z"/>
<path fill="#339F4F" opacity="1.000000" stroke="none" 
	d="
M594.209534,120.294937 
	C592.054932,119.166321 589.878601,118.076942 587.750183,116.900909 
	C583.343445,114.466034 578.962280,111.985054 574.350342,109.280975 
	C573.788330,107.229027 573.446533,105.419159 573.138550,103.198776 
	C580.871704,108.163223 588.821411,112.923096 598.835205,113.410812 
	C598.387329,114.809181 597.723083,115.938210 596.811951,117.255157 
	C595.779907,118.393692 594.994751,119.344315 594.209534,120.294937 
z"/>
<path fill="#6DB64C" opacity="1.000000" stroke="none" 
	d="
M625.921326,92.207321 
	C626.083679,91.400223 626.102173,90.528862 626.429810,89.795593 
	C632.286316,76.687721 630.036621,64.770164 621.090576,53.487705 
	C621.727966,53.149918 622.496643,53.118362 623.843079,53.387589 
	C632.038513,62.468388 634.689087,72.432953 632.004028,83.866104 
	C631.633118,85.445450 632.762878,87.377220 632.906067,89.319557 
	C630.802734,90.314926 628.991272,91.136574 626.864502,92.021538 
	C626.339844,92.125679 626.130615,92.166496 625.921326,92.207321 
z"/>
<path fill="#5EB04D" opacity="1.000000" stroke="none" 
	d="
M633.197937,89.145828 
	C632.762878,87.377220 631.633118,85.445450 632.004028,83.866104 
	C634.689087,72.432953 632.038513,62.468388 624.225830,53.430702 
	C625.777222,53.385757 627.523682,53.598476 629.607788,53.987617 
	C631.147278,57.220039 632.937988,60.185444 633.425110,63.351418 
	C634.361450,69.437164 634.601379,75.633560 635.038574,81.790573 
	C635.176270,83.730011 635.021729,85.690186 634.919983,88.143478 
	C634.291992,88.812668 633.744934,88.979248 633.197937,89.145828 
z"/>
<path fill="#3D6568" opacity="1.000000" stroke="none" 
	d="
M310.998779,100.000000 
	C310.998779,112.437149 310.998779,124.374298 310.998779,136.311447 
	C310.749390,136.309189 310.499969,136.306931 310.250580,136.304672 
	C310.250580,111.102432 310.250580,85.900192 310.250580,60.697948 
	C310.499969,60.695900 310.749390,60.693851 310.998779,60.691799 
	C310.998779,73.627869 310.998779,86.563934 310.998779,100.000000 
z"/>
<path fill="#395869" opacity="1.000000" stroke="none" 
	d="
M429.009827,63.067757 
	C429.080109,62.076668 429.146545,61.436069 429.212982,60.795471 
	C429.370575,60.800083 429.528168,60.804695 429.685760,60.809307 
	C429.685760,85.921402 429.685760,111.033485 429.685760,136.145584 
	C429.459167,136.148209 429.232574,136.150848 429.005981,136.153473 
	C429.005981,111.908401 429.005981,87.663322 429.009827,63.067757 
z"/>
<path fill="#403E70" opacity="1.000000" stroke="none" 
	d="
M479.019714,62.379807 
	C479.135071,61.592991 479.242462,61.124489 479.349854,60.655983 
	C479.474335,60.663033 479.598816,60.670078 479.723297,60.677124 
	C479.723297,85.553116 479.723297,110.429108 479.723297,135.305099 
	C479.486115,135.306854 479.248962,135.308609 479.011780,135.310364 
	C479.011780,111.106285 479.011780,86.902206 479.019714,62.379807 
z"/>
<path fill="#403E70" opacity="1.000000" stroke="none" 
	d="
M138.049774,134.240677 
	C138.029465,109.504013 138.029465,85.064331 138.029465,60.624645 
	C138.352615,60.622978 138.675781,60.621315 138.998932,60.619648 
	C138.998932,63.073380 138.999847,65.527107 138.998795,67.980843 
	C138.989273,89.978035 138.979980,111.975220 138.963959,133.972412 
	C138.963730,134.301437 138.878662,134.630417 138.833176,134.959412 
	C138.578812,134.818817 138.324463,134.678238 138.049774,134.240677 
z"/>
<path fill="#51AB4D" opacity="1.000000" stroke="none" 
	d="
M583.875732,157.553619 
	C583.103943,157.408768 582.355835,157.181824 581.330078,156.855408 
	C581.798279,152.051224 582.544006,147.346512 583.776611,142.479858 
	C585.466614,142.888458 586.669678,143.459030 587.872803,144.029572 
	C586.976501,147.139420 586.080200,150.249252 584.826477,153.981430 
	C584.293396,155.504562 584.117798,156.405350 583.942261,157.306137 
	C583.942261,157.306137 583.899353,157.471512 583.875732,157.553619 
z"/>
<path fill="#403E70" opacity="1.000000" stroke="none" 
	d="
M302.001221,112.000000 
	C302.001221,102.900139 302.001221,94.300278 302.001221,85.700417 
	C302.234863,85.700455 302.468475,85.700500 302.702118,85.700546 
	C302.702118,102.174591 302.702118,118.648636 302.702118,135.122681 
	C302.468475,135.131973 302.234863,135.141266 302.001221,135.150558 
	C302.001221,127.600372 302.001221,120.050179 302.001221,112.000000 
z"/>
<path fill="#3D6568" opacity="1.000000" stroke="none" 
	d="
M420.998779,105.002869 
	C420.998779,115.434456 420.998779,125.366821 420.998779,135.299194 
	C420.750946,135.296768 420.503113,135.294357 420.255280,135.291946 
	C420.255280,120.097511 420.255280,104.903091 420.255280,89.708664 
	C420.503113,89.703789 420.750946,89.698906 420.998779,89.694023 
	C420.998779,94.630569 420.998779,99.567108 420.998779,105.002869 
z"/>
<path fill="#3D6568" opacity="1.000000" stroke="none" 
	d="
M196.998352,86.994492 
	C196.997849,103.072174 196.997849,119.156570 196.997849,135.240967 
	C196.665436,135.242859 196.333023,135.244766 196.000610,135.246658 
	C196.000610,124.209915 195.933929,113.172577 196.031601,102.136688 
	C196.074051,97.340591 196.454407,92.547478 196.844223,87.373306 
	C197.007156,86.993591 196.998856,87.001213 196.998352,86.994492 
z"/>
<path fill="#C3DD81" opacity="1.000000" stroke="none" 
	d="
M586.723145,68.165314 
	C585.082458,75.293777 585.795959,81.979187 591.785461,87.749298 
	C589.811401,86.015930 587.504028,84.133141 585.535828,81.945206 
	C584.197144,80.457016 583.333557,78.541405 582.127319,76.914497 
	C581.814270,77.000938 581.631592,76.989815 581.175293,76.959839 
	C582.742859,74.075676 584.584167,71.210365 586.723145,68.165314 
z"/>
<path fill="#403E70" opacity="1.000000" stroke="none" 
	d="
M185.997742,97.567802 
	C185.998306,110.421371 185.998306,122.856873 185.998306,135.292374 
	C185.766037,135.292557 185.533783,135.292755 185.301514,135.292938 
	C185.301514,121.471985 185.301514,107.651016 185.301514,93.830055 
	C185.427444,93.816154 185.553375,93.802261 185.679321,93.788361 
	C185.785263,94.908821 185.891220,96.029274 185.997742,97.567802 
z"/>
<path fill="#395869" opacity="1.000000" stroke="none" 
	d="
M439.422882,140.998810 
	C437.555420,140.998566 436.117584,140.998566 434.679779,140.998566 
	C434.681671,140.748337 434.683594,140.498093 434.685516,140.247864 
	C448.193451,140.247864 461.701385,140.247864 475.209320,140.247864 
	C475.213287,140.498260 475.217255,140.748672 475.221222,140.999069 
	C463.431671,140.999069 451.642090,140.999069 439.422882,140.998810 
z"/>
<path fill="#3D6568" opacity="1.000000" stroke="none" 
	d="
M474.110168,52.401691 
	C461.135101,52.575474 448.051910,52.575474 434.968689,52.575474 
	C434.964386,52.459618 434.960083,52.343765 434.955780,52.227909 
	C447.971191,52.227909 460.986603,52.227909 474.110168,52.401691 
z"/>
<path fill="#403E70" opacity="1.000000" stroke="none" 
	d="
M457.998505,55.998962 
	C449.902130,55.998962 442.305328,55.998962 434.708557,55.998962 
	C434.708038,55.766315 434.707520,55.533672 434.707001,55.301025 
	C447.843079,55.301025 460.979156,55.301025 474.115234,55.301025 
	C474.128357,55.533672 474.141479,55.766319 474.154633,55.998966 
	C468.935791,55.998966 463.716949,55.998966 457.998505,55.998962 
z"/>
<path fill="#395869" opacity="1.000000" stroke="none" 
	d="
M392.002838,140.000610 
	C400.109253,140.000610 407.716400,140.000610 415.323578,140.000610 
	C415.321381,140.249924 415.319153,140.499222 415.316956,140.748535 
	C402.439026,140.748535 389.561096,140.748535 376.683167,140.748535 
	C376.678467,140.499222 376.673767,140.249924 376.669067,140.000610 
	C381.613922,140.000610 386.558746,140.000610 392.002838,140.000610 
z"/>
<path fill="#395869" opacity="1.000000" stroke="none" 
	d="
M334.999969,140.000610 
	C341.779572,140.000610 348.059326,140.000610 354.339081,140.000610 
	C354.335266,140.249542 354.331451,140.498489 354.327637,140.747421 
	C341.446930,140.747421 328.566254,140.747421 315.685547,140.747421 
	C315.681488,140.498489 315.677460,140.249542 315.673401,140.000610 
	C321.948975,140.000610 328.224548,140.000610 334.999969,140.000610 
z"/>
<path fill="#395869" opacity="1.000000" stroke="none" 
	d="
M281.998474,140.999390 
	C274.221161,140.999390 266.943420,140.999390 259.665710,140.999390 
	C259.668854,140.749908 259.671967,140.500427 259.675110,140.250946 
	C272.558319,140.250946 285.441528,140.250946 298.324738,140.250946 
	C298.329163,140.500427 298.333588,140.749908 298.338043,140.999390 
	C293.058044,140.999390 287.778076,140.999390 281.998474,140.999390 
z"/>
<path fill="#395869" opacity="1.000000" stroke="none" 
	d="
M158.002869,140.000610 
	C166.111923,140.000610 173.721771,140.000610 181.331604,140.000610 
	C181.329376,140.250092 181.327148,140.499588 181.324921,140.749069 
	C168.441605,140.749069 155.558304,140.749069 142.674988,140.749069 
	C142.670303,140.499588 142.665634,140.250092 142.660950,140.000610 
	C147.608521,140.000610 152.556076,140.000610 158.002869,140.000610 
z"/>
<path fill="#7ABB4D" opacity="1.000000" stroke="none" 
	d="
M588.042358,143.709167 
	C586.669678,143.459030 585.466614,142.888458 583.959717,142.163589 
	C584.437317,139.673416 585.218628,137.337540 586.052734,134.652252 
	C586.534851,133.911926 586.964294,133.521042 587.723145,133.270462 
	C589.010986,134.298676 589.969543,135.186584 590.928040,136.074493 
	C590.022644,138.512573 589.117249,140.950668 588.042358,143.709167 
z"/>
<path fill="#395869" opacity="1.000000" stroke="none" 
	d="
M228.961380,140.999390 
	C219.541977,140.999390 210.614777,140.999390 201.687576,140.999390 
	C201.690857,140.753525 201.694138,140.507645 201.697418,140.261780 
	C214.231232,140.261780 226.765045,140.261780 239.298859,140.261780 
	C239.304108,140.507645 239.309357,140.753525 239.314606,140.999390 
	C236.027588,140.999390 232.740585,140.999390 228.961380,140.999390 
z"/>
<path fill="#403E70" opacity="1.000000" stroke="none" 
	d="
M150.201782,55.001076 
	C160.572937,55.001053 170.477905,55.001053 180.382889,55.001053 
	C180.380875,55.251980 180.378860,55.502903 180.376862,55.753830 
	C168.171005,55.753830 155.965164,55.753830 143.759323,55.753830 
	C143.745255,55.502918 143.731201,55.252010 143.717148,55.001099 
	C145.723312,55.001099 147.729462,55.001099 150.201782,55.001076 
z"/>
<path fill="#403E70" opacity="1.000000" stroke="none" 
	d="
M316.761047,55.049744 
	C328.831573,55.029423 340.605194,55.029423 352.378815,55.029423 
	C352.378448,55.330658 352.378082,55.631897 352.377716,55.933132 
	C340.428772,55.933132 328.479797,55.933529 316.530823,55.928982 
	C316.368042,55.928921 316.205261,55.866493 316.042480,55.833179 
	C316.183044,55.578808 316.323608,55.324436 316.761047,55.049744 
z"/>
<path fill="#403E70" opacity="1.000000" stroke="none" 
	d="
M255.998932,109.038002 
	C255.998932,117.454544 255.998932,125.378761 255.998932,133.302979 
	C255.764603,133.303482 255.530289,133.304001 255.295959,133.304520 
	C255.295959,121.826210 255.295959,110.347908 255.295959,98.869598 
	C255.530289,98.851158 255.764618,98.832710 255.998947,98.814262 
	C255.998947,102.058067 255.998947,105.301865 255.998932,109.038002 
z"/>
<path fill="#C3DD81" opacity="1.000000" stroke="none" 
	d="
M608.852661,63.680054 
	C604.340576,63.309929 599.657471,62.648979 594.586304,61.997215 
	C596.192078,61.022217 598.185913,60.038044 600.524963,59.011875 
	C603.473999,60.443001 606.077881,61.916115 608.852661,63.680054 
z"/>
<path fill="#C3DD81" opacity="1.000000" stroke="none" 
	d="
M590.785889,65.201134 
	C590.262756,65.812378 589.406128,66.393692 588.226929,67.022003 
	C588.753662,66.436401 589.603027,65.803810 590.785889,65.201134 
z"/>
<path fill="#95C649" opacity="1.000000" stroke="none" 
	d="
M576.978760,86.681877 
	C576.777832,87.012466 576.587158,87.000336 576.110596,86.965012 
	C576.060486,86.406548 576.296204,85.871284 576.762939,85.152237 
	C576.992371,85.425354 576.990662,85.882256 576.978760,86.681877 
z"/>
<path fill="#403E71" opacity="1.000000" stroke="none" 
	d="
M677.986450,89.613113 
	C684.516113,90.584366 691.052185,92.012146 697.853882,93.703842 
	C698.077698,106.793190 698.064270,119.618805 697.981567,132.443970 
	C697.943115,138.408020 697.385010,138.984467 691.300598,138.974838 
	C676.412415,138.951279 678.083740,140.377533 678.013794,126.049637 
	C677.955261,114.056549 677.995972,102.062981 677.986450,89.613113 
z"/>
<path fill="#474648" opacity="1.000000" stroke="none" 
	d="
M618.067932,150.085907 
	C611.211914,147.410141 604.283875,144.901154 597.530273,141.988037 
	C594.167053,140.537338 593.668213,137.741333 596.073486,134.065033 
	C601.270996,127.323036 606.130615,121.151978 610.982056,115.422577 
	C611.226074,122.598450 610.754944,129.466522 611.968262,136.022873 
	C612.874329,140.919128 615.955444,145.412903 618.067932,150.085907 
z"/>
<path fill="#8C8E90" opacity="1.000000" stroke="none" 
	d="
M669.791504,111.039154 
	C669.559387,112.474060 669.327332,113.908966 668.623169,115.610779 
	C666.298035,114.294098 664.316772,112.836769 662.613464,111.105835 
	C653.668457,102.015755 639.716370,102.110794 631.157043,111.394852 
	C623.220093,120.003853 624.497620,134.837067 633.724792,142.559219 
	C635.711792,144.222153 637.330261,146.325470 639.118469,148.225937 
	C637.665405,148.754181 636.212280,149.282425 634.398376,149.623489 
	C634.037537,149.436310 633.988220,149.015656 633.862427,148.704651 
	C632.882324,147.396255 632.124146,146.292877 631.158936,145.417664 
	C619.645020,134.976791 618.716003,120.021713 628.912109,108.655647 
	C638.452942,98.020088 653.716492,97.607178 665.017273,107.617310 
	C666.475159,108.908653 668.193726,109.905754 669.791504,111.039154 
z"/>
<path fill="#797B7C" opacity="1.000000" stroke="none" 
	d="
M633.988220,149.015656 
	C633.988220,149.015656 634.037537,149.436310 634.062988,149.646194 
	C631.622986,149.976883 629.157471,150.097687 626.232178,149.761108 
	C619.754089,141.804825 614.541321,133.732407 616.206970,123.680923 
	C617.209961,117.628304 620.023560,111.875725 622.218994,105.728409 
	C623.616760,103.976868 624.819031,102.485229 626.183838,100.822983 
	C626.595276,100.457466 626.816650,100.235199 627.358276,99.917908 
	C630.802979,98.269630 633.900024,96.689026 637.307617,95.052139 
	C638.037354,94.950745 638.456482,94.905624 638.875671,94.860504 
	C641.312439,94.604828 643.749146,94.349159 646.939941,94.186798 
	C653.981201,96.623558 660.247864,99.025551 666.576660,101.250916 
	C667.592285,101.608017 668.885437,101.175781 670.050293,101.108429 
	C670.114258,102.879723 670.178223,104.651024 669.744385,106.592102 
	C667.625977,105.607544 665.947144,104.526367 664.394043,103.287468 
	C649.750916,91.606491 625.454163,98.824287 620.138855,117.484726 
	C617.986694,125.040024 618.431152,132.759155 622.483093,139.708817 
	C625.060669,144.129807 628.041199,148.537064 633.988220,149.015656 
z"/>
<path fill="#B1B3B1" opacity="1.000000" stroke="none" 
	d="
M664.716431,126.967445 
	C661.226990,133.696579 657.083740,139.807892 649.033203,142.795349 
	C646.453186,142.155624 644.522156,141.635330 642.632629,140.992661 
	C634.965210,138.384827 630.249573,131.208206 631.242615,123.724365 
	C632.212646,116.413719 638.178101,110.816353 645.748779,110.113304 
	C653.537048,109.390038 660.319397,114.212852 662.661682,122.026588 
	C663.171204,123.726135 664.022583,125.323181 664.716431,126.967445 
M654.907776,135.489029 
	C660.059753,130.339218 661.076721,126.029617 658.492981,120.296547 
	C656.464722,115.796318 651.456299,112.870529 646.326538,113.189308 
	C641.199524,113.507904 636.823120,117.100426 635.072937,122.427338 
	C633.597961,126.916298 635.214844,132.177597 639.080688,135.468353 
	C643.354614,139.106461 648.344604,139.265366 654.907776,135.489029 
z"/>
<path fill="#848788" opacity="1.000000" stroke="none" 
	d="
M633.862427,148.704651 
	C628.041199,148.537064 625.060669,144.129807 622.483093,139.708817 
	C618.431152,132.759155 617.986694,125.040024 620.138855,117.484726 
	C625.454163,98.824287 649.750916,91.606491 664.394043,103.287468 
	C665.947144,104.526367 667.625977,105.607544 669.553955,106.885666 
	C669.876465,108.157845 669.891479,109.306252 669.848999,110.746902 
	C668.193726,109.905754 666.475159,108.908653 665.017273,107.617310 
	C653.716492,97.607178 638.452942,98.020088 628.912109,108.655647 
	C618.716003,120.021713 619.645020,134.976791 631.158936,145.417664 
	C632.124146,146.292877 632.882324,147.396255 633.862427,148.704651 
z"/>
<path fill="#67686A" opacity="1.000000" stroke="none" 
	d="
M622.023560,105.988312 
	C620.023560,111.875725 617.209961,117.628304 616.206970,123.680923 
	C614.541321,133.732407 619.754089,141.804825 625.904846,149.611389 
	C623.601562,150.066727 621.165833,150.214386 618.398987,150.223969 
	C615.955444,145.412903 612.874329,140.919128 611.968262,136.022873 
	C610.754944,129.466522 611.226074,122.598450 610.983032,115.430458 
	C610.992126,114.996689 610.984863,115.005554 611.137573,114.864258 
	C611.491882,114.535400 611.691406,114.345673 612.087524,113.870300 
	C615.531921,111.053986 618.777771,108.521156 622.023560,105.988312 
z"/>
<path fill="#949697" opacity="1.000000" stroke="none" 
	d="
M639.419067,148.035736 
	C637.330261,146.325470 635.711792,144.222153 633.724792,142.559219 
	C624.497620,134.837067 623.220093,120.003853 631.157043,111.394852 
	C639.716370,102.110794 653.668457,102.015755 662.613464,111.105835 
	C664.316772,112.836769 666.298035,114.294098 668.482788,115.952835 
	C668.053223,118.537514 667.291992,121.047035 666.182678,123.442963 
	C665.003174,121.156448 664.400391,118.859421 663.300232,116.832352 
	C658.821960,108.581223 648.704834,105.046387 640.102051,108.575584 
	C631.209290,112.223724 626.851746,121.335686 629.124390,130.639877 
	C631.324585,139.647064 638.239807,142.745590 646.012268,145.011902 
	C643.914734,145.956451 641.817200,146.901001 639.419067,148.035736 
z"/>
<path fill="#A1A3A4" opacity="1.000000" stroke="none" 
	d="
M646.323242,144.961426 
	C638.239807,142.745590 631.324585,139.647064 629.124390,130.639877 
	C626.851746,121.335686 631.209290,112.223724 640.102051,108.575584 
	C648.704834,105.046387 658.821960,108.581223 663.300232,116.832352 
	C664.400391,118.859421 665.003174,121.156448 665.929260,123.689362 
	C665.690491,124.835480 665.357056,125.621605 664.869995,126.687576 
	C664.022583,125.323181 663.171204,123.726135 662.661682,122.026588 
	C660.319397,114.212852 653.537048,109.390038 645.748779,110.113304 
	C638.178101,110.816353 632.212646,116.413719 631.242615,123.724365 
	C630.249573,131.208206 634.965210,138.384827 642.632629,140.992661 
	C644.522156,141.635330 646.453186,142.155624 648.696594,142.899261 
	C648.230103,143.681213 647.432129,144.296082 646.323242,144.961426 
z"/>
<path fill="#475F6F" opacity="1.000000" stroke="none" 
	d="
M622.218994,105.728416 
	C618.777771,108.521156 615.531921,111.053986 611.936035,114.008408 
	C611.385498,114.621735 611.185120,114.813583 610.984863,115.005554 
	C610.984863,115.005554 610.992126,114.996689 610.991211,114.988800 
	C606.130615,121.151978 601.270996,127.323036 596.179993,133.739105 
	C595.403809,133.411621 594.859009,132.839142 594.168701,131.763794 
	C594.358582,130.569778 594.693970,129.878647 595.272400,128.990707 
	C596.237488,127.849144 596.959534,126.904381 597.825073,125.643021 
	C598.578918,124.190636 599.189331,123.054863 599.988892,121.639366 
	C602.118713,119.601295 604.059326,117.842949 606.312378,115.953011 
	C612.064575,110.819305 617.504395,105.817192 623.328125,100.859665 
	C624.481750,100.934044 625.251526,100.963821 626.021301,100.993591 
	C624.819031,102.485229 623.616760,103.976868 622.218994,105.728416 
z"/>
<path fill="#6A6C6D" opacity="1.000000" stroke="none" 
	d="
M670.028137,100.679352 
	C668.885437,101.175781 667.592285,101.608017 666.576660,101.250916 
	C660.247864,99.025551 653.981201,96.623558 647.338623,94.121994 
	C651.034119,93.005341 655.084900,92.046799 659.717529,91.358749 
	C663.518921,93.078201 666.738464,94.527168 669.958008,95.976120 
	C669.973999,97.400841 669.989990,98.825554 670.028137,100.679352 
z"/>
<path fill="#51AB4D" opacity="1.000000" stroke="none" 
	d="
M664.554321,83.916763 
	C666.620789,85.150963 668.250183,86.407921 669.707703,87.753242 
	C668.988647,87.850121 668.441406,87.858620 667.179565,87.882385 
	C664.387695,88.222969 662.310425,88.548302 660.233215,88.873627 
	C659.074707,88.892807 657.916138,88.911980 656.213989,88.528648 
	C655.435242,86.886826 655.200195,85.647507 654.965149,84.408195 
	C658.015869,84.251968 661.066589,84.095741 664.554321,83.916763 
z"/>
<path fill="#403E70" opacity="1.000000" stroke="none" 
	d="
M728.002991,95.417625 
	C728.003296,93.535690 728.003296,92.084457 728.003296,90.633224 
	C728.248474,90.634552 728.493652,90.635872 728.738831,90.637199 
	C728.738831,105.504166 728.738831,120.371132 728.738831,135.238098 
	C728.493469,135.241989 728.248047,135.245865 728.002686,135.249741 
	C728.002686,122.115944 728.002686,108.982132 728.002991,95.417625 
z"/>
<path fill="#95C649" opacity="1.000000" stroke="none" 
	d="
M636.893494,88.153671 
	C637.982605,87.725182 639.071716,87.296692 640.417297,86.743790 
	C642.150513,86.381004 643.627319,86.142647 645.555908,86.302048 
	C646.000122,88.087051 645.992554,89.474281 645.984985,90.861526 
	C643.950195,91.580132 641.915466,92.298729 639.391846,92.709427 
	C638.233154,90.985580 637.563293,89.569633 636.893494,88.153671 
z"/>
<path fill="#395869" opacity="1.000000" stroke="none" 
	d="
M750.989624,89.985931 
	C751.302429,91.246361 751.905640,92.522278 751.911743,93.801064 
	C751.979431,107.904938 751.954285,122.009254 750.992249,136.122299 
	C750.992249,121.049721 750.992249,105.977135 750.996216,90.431915 
	C751.000122,89.959274 751.002747,90.002747 750.989624,89.985931 
z"/>
<path fill="#7ABB4D" opacity="1.000000" stroke="none" 
	d="
M646.383362,90.886490 
	C645.992554,89.474281 646.000122,88.087051 646.001648,86.282822 
	C647.116699,85.534637 648.237732,85.203438 649.700500,84.771545 
	C651.408203,84.586197 652.774231,84.501541 654.552734,84.412537 
	C655.200195,85.647507 655.435242,86.886826 655.781067,88.484818 
	C652.855164,89.532822 649.818481,90.222145 646.383362,90.886490 
z"/>
<path fill="#395869" opacity="1.000000" stroke="none" 
	d="
M780.002441,109.002975 
	C780.002441,103.562454 780.002441,98.621056 780.002441,93.679665 
	C780.250305,93.684570 780.498108,93.689484 780.745972,93.694397 
	C780.745972,107.898232 780.745972,122.102066 780.745972,136.305893 
	C780.498108,136.308670 780.250305,136.311432 780.002441,136.314194 
	C780.002441,127.376831 780.002441,118.439468 780.002441,109.002975 
z"/>
<path fill="#403E70" opacity="1.000000" stroke="none" 
	d="
M676.996216,131.422836 
	C676.995605,132.968109 676.995605,134.104050 676.995605,135.240005 
	C676.771912,135.241486 676.548279,135.242966 676.324585,135.244446 
	C676.324585,121.453674 676.324585,107.662895 676.324585,93.872116 
	C676.548645,93.866371 676.772766,93.860634 676.996826,93.854889 
	C676.996826,106.241096 676.996826,118.627312 676.996216,131.422836 
z"/>
<path fill="#B2D45B" opacity="1.000000" stroke="none" 
	d="
M636.629272,88.170723 
	C637.563293,89.569633 638.233154,90.985580 639.024902,92.714798 
	C639.073364,93.434433 638.999939,93.840790 638.901123,94.553825 
	C638.456482,94.905624 638.037354,94.950745 636.975464,94.889053 
	C633.281799,93.840912 630.230835,92.899559 627.179810,91.958214 
	C628.991272,91.136574 630.802734,90.314926 632.906067,89.319557 
	C633.744934,88.979248 634.291992,88.812668 635.076477,88.482559 
	C635.664307,88.275276 636.014709,88.231522 636.629272,88.170723 
z"/>
<path fill="#57575B" opacity="1.000000" stroke="none" 
	d="
M669.912109,95.599281 
	C666.738464,94.527168 663.518921,93.078201 660.123047,91.341209 
	C666.863586,89.079895 668.205566,89.643944 669.912109,95.599281 
z"/>
<path fill="#95C649" opacity="1.000000" stroke="none" 
	d="
M595.029358,129.187531 
	C594.693970,129.878647 594.358582,130.569778 593.966797,131.546295 
	C593.059570,133.078278 592.208618,134.324860 591.142822,135.822968 
	C589.969543,135.186584 589.010986,134.298676 587.942871,133.080048 
	C588.673950,130.910919 589.514709,129.072495 590.846069,127.263962 
	C592.567627,127.925079 593.798523,128.556305 595.029358,129.187531 
z"/>
<path fill="#395869" opacity="1.000000" stroke="none" 
	d="
M679.995972,182.410370 
	C679.995239,183.946976 679.995239,185.076385 679.995239,186.205811 
	C679.768555,186.203461 679.541870,186.201126 679.315186,186.198776 
	C679.315186,178.106110 679.315186,170.013428 679.315186,161.920761 
	C679.542358,161.910690 679.769531,161.900620 679.996704,161.890564 
	C679.996704,168.594757 679.996704,175.298965 679.995972,182.410370 
z"/>
<path fill="#0F9052" opacity="1.000000" stroke="none" 
	d="
M723.862061,163.683350 
	C722.863647,162.569977 722.219543,161.417328 721.575439,160.264679 
	C722.709717,160.089584 723.843933,159.914505 724.978271,159.739441 
	C724.724304,161.040985 724.470337,162.342529 723.862061,163.683350 
z"/>
<path fill="#159050" opacity="1.000000" stroke="none" 
	d="
M728.445923,178.058197 
	C728.314880,180.806961 728.172852,183.185486 728.030823,185.564011 
	C727.780762,185.554733 727.530640,185.545441 727.280579,185.536148 
	C727.280579,180.569931 727.280579,175.603699 727.280579,170.637482 
	C727.473511,170.600830 727.666504,170.564163 727.859436,170.527496 
	C728.051270,172.914322 728.243164,175.301147 728.445923,178.058197 
z"/>
<path fill="#178D50" opacity="1.000000" stroke="none" 
	d="
M660.632751,88.904732 
	C662.310425,88.548302 664.387695,88.222969 666.899536,87.893745 
	C665.233521,88.238510 663.132935,88.587173 660.632751,88.904732 
z"/>
<path fill="#159050" opacity="1.000000" stroke="none" 
	d="
M584.135132,157.014008 
	C584.117798,156.405350 584.293396,155.504562 584.668701,154.324829 
	C584.688293,154.937866 584.508179,155.829880 584.135132,157.014008 
z"/>
<path fill="#178D50" opacity="1.000000" stroke="none" 
	d="
M713.260498,100.704666 
	C713.517395,100.794571 713.659668,101.017700 713.801941,101.240814 
	C713.575928,101.264893 713.349915,101.288986 713.022278,101.210449 
	C712.920654,101.107826 713.145874,100.837898 713.260498,100.704666 
z"/>
<path fill="#475F6F" opacity="1.000000" stroke="none" 
	d="
M594.505737,134.498398 
	C594.485107,134.504929 594.526306,134.491867 594.505737,134.498398 
z"/>
<path fill="#4C6971" opacity="1.000000" stroke="none" 
	d="
M68.300888,119.609222 
	C58.761860,120.221199 55.122986,117.068611 55.047455,108.098976 
	C54.931007,94.269554 54.925499,80.437508 55.056690,66.608322 
	C55.135086,58.344444 57.379791,56.085556 64.811127,56.005547 
	C72.121239,55.926842 75.815819,59.274776 75.910088,66.792015 
	C76.083504,80.619995 76.092789,94.453842 75.880669,108.280800 
	C75.804375,113.254440 74.565079,118.003212 68.300888,119.609222 
M56.997658,101.332184 
	C56.997658,89.761223 56.997658,78.190262 56.997658,66.619301 
	C56.784893,66.622520 56.572128,66.625748 56.359364,66.628967 
	C56.359364,80.479965 56.359364,94.330963 56.359364,108.181953 
	C56.572109,108.183083 56.784855,108.184204 56.997601,108.185326 
	C56.997601,106.208954 56.997601,104.232574 56.997658,101.332184 
M74.002319,78.530365 
	C74.002319,88.070564 74.002319,97.610771 74.002319,107.150970 
	C74.236031,107.143730 74.469734,107.136482 74.703445,107.129242 
	C74.703445,93.985611 74.703445,80.841988 74.703445,67.698364 
	C74.469742,67.698242 74.236038,67.698120 74.002335,67.697998 
	C74.002335,70.981316 74.002335,74.264626 74.002319,78.530365 
z"/>
<path fill="#4B6871" opacity="1.000000" stroke="none" 
	d="
M747.555115,175.482849 
	C747.566772,177.576645 748.066467,179.811340 747.179443,181.064285 
	C745.799622,183.013245 743.515320,185.465714 741.543579,185.529968 
	C739.571045,185.594254 736.311707,183.322937 735.794373,181.468048 
	C735.150513,179.159119 736.044495,175.744339 737.497009,173.658401 
	C741.403442,168.048019 744.402466,172.570038 747.555115,175.482849 
z"/>
<path fill="#4B6871" opacity="1.000000" stroke="none" 
	d="
M660.811157,184.918152 
	C655.171387,186.427612 652.868713,185.377655 651.540649,181.026138 
	C650.153198,176.480179 652.013916,172.568985 656.255249,171.116043 
	C658.763062,170.256958 663.984253,174.000061 663.747253,177.074448 
	C663.546265,179.680954 662.069214,182.189072 660.811157,184.918152 
z"/>
<path fill="#D9E9B1" opacity="1.000000" stroke="none" 
	d="
M622.944275,100.815071 
	C617.504395,105.817192 612.064575,110.819305 605.972412,115.847397 
	C603.683838,114.845703 602.047546,113.818039 600.411316,112.790375 
	C600.523743,112.644447 600.636169,112.498512 601.139038,112.044243 
	C601.747131,111.525658 601.905029,111.277412 602.003235,110.991165 
	C602.912354,109.907394 603.821472,108.823631 604.878418,107.478981 
	C607.626038,105.019279 610.225891,102.820457 613.032349,100.353378 
	C614.330811,99.476395 615.422607,98.867661 617.132080,98.279320 
	C619.481201,99.138168 621.212708,99.976616 622.944275,100.815071 
z"/>
<path fill="#D3E7A3" opacity="1.000000" stroke="none" 
	d="
M623.328125,100.859665 
	C621.212708,99.976616 619.481201,99.138168 617.429626,98.180595 
	C617.109619,98.061478 617.140564,97.768738 617.154907,97.622787 
	C619.216797,96.370384 621.264343,95.263924 623.861206,94.317200 
	C625.277222,96.313164 626.143921,98.149384 627.010620,99.985596 
	C626.816650,100.235199 626.595276,100.457466 626.183838,100.822983 
	C625.251526,100.963821 624.481750,100.934044 623.328125,100.859665 
z"/>
<path fill="#CAE190" opacity="1.000000" stroke="none" 
	d="
M600.262207,112.854637 
	C602.047546,113.818039 603.683838,114.845703 605.660034,115.978989 
	C604.059326,117.842949 602.118713,119.601295 599.806274,121.392456 
	C598.642639,119.972603 597.850708,118.519928 597.058716,117.067245 
	C597.723083,115.938210 598.387329,114.809181 599.293701,113.443878 
	C599.754395,113.163696 599.946777,113.067467 600.262207,112.854637 
z"/>
<path fill="#CAE190" opacity="1.000000" stroke="none" 
	d="
M601.814819,111.115753 
	C601.905029,111.277412 601.747131,111.525658 601.355225,111.872154 
	C601.237915,111.699303 601.386414,111.443291 601.814819,111.115753 
z"/>
<path fill="#B2D45B" opacity="1.000000" stroke="none" 
	d="
M595.272400,128.990723 
	C593.798523,128.556305 592.567627,127.925079 591.096619,127.034851 
	C591.781250,125.095741 592.706055,123.415634 593.965332,121.792511 
	C595.427063,123.219528 596.554321,124.589561 597.681580,125.959610 
	C596.959534,126.904381 596.237488,127.849144 595.272400,128.990723 
z"/>
<path fill="#BCD970" opacity="1.000000" stroke="none" 
	d="
M597.825073,125.643005 
	C596.554321,124.589561 595.427063,123.219528 594.192871,121.569839 
	C594.101440,121.123642 594.116821,120.957092 594.170898,120.542740 
	C594.994751,119.344315 595.779907,118.393692 596.811890,117.255157 
	C597.850708,118.519928 598.642639,119.972603 599.617188,121.672180 
	C599.189331,123.054863 598.578918,124.190636 597.825073,125.643005 
z"/>
<path fill="#C3DD81" opacity="1.000000" stroke="none" 
	d="
M611.345093,84.883118 
	C614.289185,78.946724 614.959473,72.836296 611.140747,66.323395 
	C617.045349,70.262054 617.358337,79.520294 611.345093,84.883118 
z"/>
<path fill="#C3DD81" opacity="1.000000" stroke="none" 
	d="
M601.358521,90.940865 
	C603.423645,89.705353 605.872070,88.458344 608.672119,87.120110 
	C606.596375,88.329041 604.169128,89.629204 601.358521,90.940865 
z"/>
<path fill="#C3DD81" opacity="1.000000" stroke="none" 
	d="
M592.177917,88.316093 
	C594.184509,88.833832 596.391357,89.629982 598.811096,90.689255 
	C596.808716,90.166420 594.593445,89.380455 592.177917,88.316093 
z"/>
<path fill="#E2EFC3" opacity="1.000000" stroke="none" 
	d="
M605.025146,68.949249 
	C605.248718,69.180786 605.475281,69.409439 605.950439,70.151871 
	C606.147888,74.121849 606.099487,77.575150 606.051147,81.028458 
	C605.818726,81.251129 605.589233,81.476791 604.808350,81.953552 
	C603.120544,82.400154 601.993103,82.718842 600.852600,82.776329 
	C595.910400,83.025452 592.171265,79.757309 592.266357,75.352524 
	C592.361511,70.950249 596.214111,67.827423 601.143799,68.240318 
	C602.448242,68.349571 603.731934,68.706207 605.025146,68.949249 
M604.118713,78.444565 
	C603.687561,76.046448 603.846252,73.239487 602.583496,71.417816 
	C601.924255,70.466736 597.662292,70.459076 596.972351,71.420746 
	C595.704529,73.187660 594.810181,76.515793 595.669312,78.244171 
	C597.413818,81.753700 600.700134,81.432426 604.118713,78.444565 
z"/>
<path fill="#D9E9B1" opacity="1.000000" stroke="none" 
	d="
M604.832031,68.651169 
	C603.731934,68.706207 602.448242,68.349571 601.143799,68.240318 
	C596.214111,67.827423 592.361511,70.950249 592.266357,75.352524 
	C592.171265,79.757309 595.910400,83.025452 600.852600,82.776329 
	C601.993103,82.718842 603.120544,82.400154 604.639526,82.126083 
	C601.418335,85.607346 596.851807,85.957672 593.631226,82.924622 
	C589.577576,79.107048 589.250916,73.390495 592.834351,68.980431 
	C595.836426,65.285828 600.234680,65.052109 604.832031,68.651169 
z"/>
<path fill="#D9E9B1" opacity="1.000000" stroke="none" 
	d="
M606.369385,80.861511 
	C606.099487,77.575150 606.147888,74.121849 606.123657,70.320053 
	C609.881226,73.317009 610.077087,76.616455 606.369385,80.861511 
z"/>
<path fill="#BFD883" opacity="1.000000" stroke="none" 
	d="
M627.358276,99.917923 
	C626.143921,98.149384 625.277222,96.313164 624.195679,94.212318 
	C624.504639,93.489975 625.028442,93.032257 625.736816,92.390930 
	C626.130615,92.166496 626.339844,92.125679 626.864502,92.021530 
	C630.230835,92.899559 633.281799,93.840912 636.664978,94.945343 
	C633.900024,96.689026 630.802979,98.269630 627.358276,99.917923 
z"/>
<path fill="#C0C1C2" opacity="1.000000" stroke="none" 
	d="
M654.621704,135.721527 
	C648.344604,139.265366 643.354614,139.106461 639.080688,135.468353 
	C635.214844,132.177597 633.597961,126.916298 635.072937,122.427338 
	C636.823120,117.100426 641.199524,113.507904 646.326538,113.189308 
	C651.456299,112.870529 656.464722,115.796318 658.492981,120.296547 
	C661.076721,126.029617 660.059753,130.339218 654.621704,135.721527 
M639.754272,132.698044 
	C640.547180,133.296707 641.275818,134.018143 642.143982,134.473312 
	C646.450684,136.731125 651.573364,135.986740 654.547241,132.745682 
	C657.321289,129.722397 657.836731,124.206100 655.555237,120.612221 
	C652.868713,116.380424 648.816589,115.350594 644.221252,116.391983 
	C637.660950,117.878639 635.510498,124.921043 639.754272,132.698044 
z"/>
<path fill="#474648" opacity="1.000000" stroke="none" 
	d="
M611.137573,114.864258 
	C611.185120,114.813583 611.385498,114.621735 611.737427,114.291901 
	C611.691406,114.345673 611.491882,114.535400 611.137573,114.864258 
z"/>
<path fill="#403E70" opacity="1.000000" stroke="none" 
	d="
M56.997627,101.794189 
	C56.997601,104.232574 56.997601,106.208954 56.997601,108.185326 
	C56.784855,108.184204 56.572109,108.183083 56.359364,108.181953 
	C56.359364,94.330963 56.359364,80.479965 56.359364,66.628967 
	C56.572128,66.625748 56.784893,66.622520 56.997658,66.619301 
	C56.997658,78.190262 56.997658,89.761223 56.997627,101.794189 
z"/>
<path fill="#403E70" opacity="1.000000" stroke="none" 
	d="
M74.002327,78.039154 
	C74.002335,74.264626 74.002335,70.981316 74.002335,67.697998 
	C74.236038,67.698120 74.469742,67.698242 74.703445,67.698364 
	C74.703445,80.841988 74.703445,93.985611 74.703445,107.129242 
	C74.469734,107.136482 74.236031,107.143730 74.002319,107.150970 
	C74.002319,97.610771 74.002319,88.070564 74.002327,78.039154 
z"/>
<path fill="#EAF3D4" opacity="1.000000" stroke="none" 
	d="
M603.888367,78.746017 
	C600.700134,81.432426 597.413818,81.753700 595.669312,78.244171 
	C594.810181,76.515793 595.704529,73.187660 596.972351,71.420746 
	C597.662292,70.459076 601.924255,70.466736 602.583496,71.417816 
	C603.846252,73.239487 603.687561,76.046448 603.888367,78.746017 
M600.226685,78.287437 
	C600.771851,76.737953 601.317017,75.188461 601.862183,73.638977 
	C600.557373,73.624252 599.252502,73.609528 597.947632,73.594818 
	C598.490540,75.166199 599.033386,76.737579 600.226685,78.287437 
z"/>
<path fill="#CCCDCE" opacity="1.000000" stroke="none" 
	d="
M639.517456,132.402573 
	C635.510498,124.921043 637.660950,117.878639 644.221252,116.391983 
	C648.816589,115.350594 652.868713,116.380424 655.555237,120.612221 
	C657.836731,124.206100 657.321289,129.722397 654.547241,132.745682 
	C651.573364,135.986740 646.450684,136.731125 642.143982,134.473312 
	C641.275818,134.018143 640.547180,133.296707 639.517456,132.402573 
M642.963989,119.246254 
	C639.629639,121.438820 638.112854,124.744385 639.703125,128.231476 
	C640.720093,130.461395 643.399963,133.176010 645.518860,133.343872 
	C648.133972,133.551010 652.040955,132.041504 653.356873,129.977692 
	C654.688965,127.888458 654.458252,123.763786 653.264465,121.343369 
	C651.411926,117.587532 647.466614,117.433136 642.963989,119.246254 
z"/>
<path fill="#E9EAE9" opacity="1.000000" stroke="none" 
	d="
M599.901489,78.298203 
	C599.033386,76.737579 598.490540,75.166199 597.947632,73.594810 
	C599.252502,73.609528 600.557373,73.624252 601.862183,73.638977 
	C601.317017,75.188461 600.771851,76.737953 599.901489,78.298203 
z"/>
<path fill="#D7D8D9" opacity="1.000000" stroke="none" 
	d="
M643.311035,119.069061 
	C647.466614,117.433136 651.411926,117.587532 653.264465,121.343369 
	C654.458252,123.763786 654.688965,127.888458 653.356873,129.977692 
	C652.040955,132.041504 648.133972,133.551010 645.518860,133.343872 
	C643.399963,133.176010 640.720093,130.461395 639.703125,128.231476 
	C638.112854,124.744385 639.629639,121.438820 643.311035,119.069061 
M647.453552,130.584808 
	C651.213867,129.905472 652.803711,127.392982 651.246277,124.173508 
	C650.533264,122.699623 647.640442,121.687515 645.704285,121.634605 
	C644.651489,121.605835 642.374695,124.449715 642.670715,125.257889 
	C643.402039,127.254822 645.298462,128.825089 647.453552,130.584808 
z"/>
<path fill="#E9EAE9" opacity="1.000000" stroke="none" 
	d="
M647.090088,130.575821 
	C645.298462,128.825089 643.402039,127.254822 642.670715,125.257889 
	C642.374695,124.449715 644.651489,121.605835 645.704285,121.634605 
	C647.640442,121.687515 650.533264,122.699623 651.246277,124.173508 
	C652.803711,127.392982 651.213867,129.905472 647.090088,130.575821 
z"/>
</svg>